<?xml version="1.0" encoding="utf-8"?>
<!-- Generator: Adobe Illustrator 26.0.3, SVG Export Plug-In . SVG Version: 6.00 Build 0)  -->
<svg version="1.1" xmlns="http://www.w3.org/2000/svg" xmlns:xlink="http://www.w3.org/1999/xlink" x="0px" y="0px"
	 viewBox="0 0 768 1024" style="enable-background:new 0 0 768 1024;" xml:space="preserve">
<style type="text/css">
	.st0{fill:#AB2B45;}
	.st1{fill:#D82B45;}
	.st2{fill:#B8BAC1;}
	.st3{fill:#D88B56;}
	.st4{fill:#1F4BFF;}
	.st5{fill:#E59B6A;}
	.st6{fill:#7C4729;}
	.st7{clip-path:url(#SVGID_00000039846890021340832640000015956840156029408446_);fill:#E59B6A;}
	.st8{clip-path:url(#SVGID_00000018207271353244266320000012651893278568402345_);fill:#E59B6A;}
	.st9{fill:url(#SVGID_00000018226091915946698390000017454858943189116077_);}
	.st10{fill:#23009F;}
	.st11{fill:#F49DB8;}
	.st12{fill:#ED91B2;}
	.st13{clip-path:url(#SVGID_00000048465496894559625200000004722265341595888814_);fill:#D88B56;}
	.st14{clip-path:url(#SVGID_00000048465496894559625200000004722265341595888814_);fill:#FFFEF8;}
	.st15{clip-path:url(#SVGID_00000038406535099909502380000014914649871653479088_);fill:#D88B56;}
	.st16{clip-path:url(#SVGID_00000038406535099909502380000014914649871653479088_);fill:#FFFEF8;}
	.st17{fill:#773A11;}
	.st18{fill:#FFFFFF;}
	.st19{fill:none;stroke:#707070;}
	
		.st20{clip-path:url(#SVGID_00000023254947151769447280000006832896511954021537_);fill:url(#SVGID_00000066490032789180282510000014120224383669748865_);enable-background:new    ;}
	
		.st21{clip-path:url(#SVGID_00000091722965139677213690000012392327099599504773_);fill:url(#SVGID_00000161611982293418842150000015854044550722797973_);enable-background:new    ;}
	.st22{fill:#C4C435;}
</style>
<g id="ropa">
	<polygon class="st0" points="768,1024 768,694.6 655.3,656.1 112.7,656.1 0,694.6 0,1024 383.8,1024 384.2,1024 	"/>
	<path class="st1" d="M384.1,934.6c-11.9-75.3-58-86-114.5-123.5c-128.5-85.3-176-141.2-159.6-189.4c11-32.6,141.2-61.7,149.4-64.3
		h249.1c8.2,2.6,138.4,31.7,149.4,64.3c16.4,48.2-31.1,104.1-159.6,189.4c-56.5,37.5-102.5,48.2-114.4,123.5"/>
	<path class="st2" d="M384.1,936.3c0-130.1-118.4-204.9-144-244.9c-30.2-47.3-23.2-60.5-22.3-68.8c2.5-22,41.7-43.6,41.7-43.6h248.9
		c0,0,39.2,21.6,41.7,43.6c0.9,8.3,7.9,21.5-22.3,68.8c-25.6,40-144,114.8-144,244.9"/>
</g>
<g id="cara">
	<path class="st3" d="M384.2,742c80,0,144.9-45.8,144.9-102.4c0-16.8-5.7-32.6-15.9-46.6c-1.2-1.7-2.5-3.3-3.8-4.9l-0.6-0.7v-49.1
		H259.6v49.1l-0.6,0.7c-1.3,1.6-2.6,3.2-3.8,4.9c-10.2,14-15.9,29.8-15.9,46.6C239.4,696.2,304.2,742,384.2,742"/>
	<path class="st4" d="M383.8,15.6C502.1,15.6,598,168.4,598,300.1s-90.2,296.7-208.5,296.7s-220.1-165-220.1-296.7
		S265.4,15.6,383.8,15.6z"/>
	<path class="st3" d="M554.2,377.5c9.1,32.5,11.4,38,11.4,38s0.2,7-4.5,10.9c-4.1,3.4-3.8,12.9-4.7,16.3c-0.9,3.6-2.1,6-2.5,6.5
		c-1.8,2.4-7,8.7-14.2,13.1h-311c-7.3-4.4-12.4-10.7-14.2-13.1c-0.4-0.5-1.6-2.9-2.5-6.5c-0.8-3.4-0.6-12.9-4.7-16.3
		c-4.7-4-4.5-10.9-4.5-10.9s2.3-5.5,11.4-38"/>
	<path class="st5" d="M383.3,636.1C524.9,613.7,566,420.4,559.7,266.8c-1.3-30.7-10.4-60.5-26.7-86.5
		C466,73.9,354.6,57.7,274.2,131.9c-14.4,13.3-27.8,29.5-39.8,48.6c-16.2,25.9-25.4,55.7-26.7,86.2
		c-6.5,153.1,35.5,347.8,176.4,369.4"/>
	<path class="st6" d="M551.5,411.3c-11.7,90.7-38,123.6-42.3,132.8c0,0-8.9,22.4-40.6,53.5c-10.9,10.7-51.7,38.5-85.2,38.5h0.7
		c-33.5,0-74.2-27.8-85.2-38.5c-31.7-31.1-40.6-53.5-40.6-53.5c-4.3-9.2-30.3-41.7-42-131.1l-0.2-0.4c15.3,33.9,47.9,54.7,70.5,55.3
		c22.6,0.6,49.6-31.9,49.6-31.9s17.8-21.8,24.9-17.9c7.2,3.9,22.6,16.8,22.6,16.8h-0.2c0,0,15.5-12.9,22.6-16.8
		c7.2-3.9,24.9,17.9,24.9,17.9s27,32.4,49.6,31.9c22.6-0.6,55.2-21.4,70.5-55.3"/>
	<g>
		<g id="_x3C_Repetición_de_espejo_x3E__00000078734469218388187050000017567303291423080125_">
			<g>
				<defs>
					<rect id="SVGID_1_" x="316" y="460.7" width="68.2" height="73.3"/>
				</defs>
				<clipPath id="SVGID_00000007413163222951521190000002341305158912035484_">
					<use xlink:href="#SVGID_1_"  style="overflow:visible;"/>
				</clipPath>
				<path style="clip-path:url(#SVGID_00000007413163222951521190000002341305158912035484_);fill:#E59B6A;" d="M318.8,486.6
					C307,525,337.2,534,337.2,534s11.7-14.1,23.2-10.7s39,3.3,39,3.3l-4.6-65.4c0,0-10.6,0.1-30-0.5S318.8,486.6,318.8,486.6z"/>
			</g>
		</g>
		<g id="_x3C_Repetición_de_espejo_x3E__00000124844525530576077520000006502347369836148124_">
			<g>
				<defs>
					<rect id="SVGID_00000137127769391244927730000004517789430598607031_" x="384.2" y="460.7" width="68.2" height="73.3"/>
				</defs>
				<clipPath id="SVGID_00000183957660605497141780000012585772078243487630_">
					<use xlink:href="#SVGID_00000137127769391244927730000004517789430598607031_"  style="overflow:visible;"/>
				</clipPath>
				<path style="clip-path:url(#SVGID_00000183957660605497141780000012585772078243487630_);fill:#E59B6A;" d="M449.6,486.6
					c11.8,38.4-18.4,47.4-18.4,47.4s-11.7-14.1-23.2-10.7s-39,3.3-39,3.3l4.6-65.4c0,0,10.6,0.1,30-0.5S449.6,486.6,449.6,486.6z"/>
			</g>
		</g>
	</g>
	
		<linearGradient id="SVGID_00000177465916857541187600000008186541154635920035_" gradientUnits="userSpaceOnUse" x1="384.2" y1="418.1961" x2="384.2" y2="224.1576">
		<stop  offset="9.490658e-02" style="stop-color:#EFBCA0"/>
		<stop  offset="0.2133" style="stop-color:#EEC2AB"/>
		<stop  offset="0.3643" style="stop-color:#EDCEC0"/>
		<stop  offset="0.8476" style="stop-color:#E59B6A"/>
	</linearGradient>
	<path style="fill:url(#SVGID_00000177465916857541187600000008186541154635920035_);" d="M384.2,418.2c0,0-4.8,1-22.6-7.2
		c-17.9-8.2-12.5,0.5-12.5,0.5s4.3,3.2,2.2,4.2c-5.7,2.6-13-11.1-13-11.1s-4.8-10.8,3.8-17c9.1-6.5,15-12.7,15-12.7l14.7-68.1
		c0,0,9.8-44.2-16.8-69.2c-12.2-11.4-18.1-13.4-18.1-13.4h94.5c0,0-5.9,2-18.1,13.4c-26.6,25-16.8,69.2-16.8,69.2l14.7,68.1
		c0,0,5.9,6.2,15,12.7c8.6,6.1,3.8,17,3.8,17s-7.2,13.7-13,11.1c-2.1-0.9,2.2-4.2,2.2-4.2s5.4-8.7-12.5-0.5
		C389,419.2,384.2,418.2,384.2,418.2z"/>
	<path class="st6" d="M257.7,141.7c106.6,9.6,191.7,18.1,231.3,53.8c23.2,20.9,36.9,36.3,59,149.1s0,182.6,0,182.6
		s37.4-147.3,34.6-217c-1.4-34.2,0.3-58-42-134.5c-39.4-71.2-121.3-101.4-179.1-96.3S257.7,141.7,257.7,141.7z"/>
	<path class="st6" d="M257.7,141.7c0,0-25.2,33.5-44.5,63.3c-23.2,35.7-24.9,70.3-24.9,70.9c-13.6,126.3,28.3,240.9,28.3,240.9
		s-33.4-86.2-6.2-195.6S283,144,283,144"/>
	<path class="st10" d="M169.5,304.9c18-107.6,100.2-191.7,215.1-191.7c114.9,0,211.4,119.2,213.4,189.8l0,0
		c-2.7-126.3-37.4-267.5-213.7-264.1c-155.3,3-214.9,108.1-215,266L169.5,304.9z"/>
</g>
<g id="boca">
	<path class="st11" d="M383.7,475.4c10.6,0.5,18.1-2.5,18.1-2.5c20.5-0.7,42,17.8,42,17.8s-22.8,11.7-60,11.7h0.4
		c-37.2,0-60-11.7-60-11.7s21.5-18.5,42-17.8c0,0,7.5,3,18.1,2.5"/>
	<path class="st12" d="M383.7,475.4c10.6,0.5,18.1-2.5,18.1-2.5c20.5-0.7,42,17.8,42,17.8v0.1c-5.8-4.8-44.4-7.6-44.4-7.6
		s0,3.2-15.6,3h0.4c-15.6,0.2-15.6-3-15.6-3s-38.6,2.8-44.4,7.6v-0.1c0,0,21.5-18.5,42-17.8c0,0,7.5,3,18.1,2.5"/>
</g>
<g id="ojos">
	<g>
		<g id="_x3C_Repetición_de_espejo_x3E__00000024713451461708658100000009165479384763350174_">
			<g>
				<defs>
					<polygon id="SVGID_00000152980341247719052830000017134832000598057894_" points="270.5,279.8 270.5,279.8 337,279.8 
						337,317.1 270.5,317.1 					"/>
				</defs>
				<clipPath id="SVGID_00000111874384851416205060000018357391990522978716_">
					<use xlink:href="#SVGID_00000152980341247719052830000017134832000598057894_"  style="overflow:visible;"/>
				</clipPath>
				<path style="clip-path:url(#SVGID_00000111874384851416205060000018357391990522978716_);fill:#D88B56;" d="M336.9,305.5
					c0,0-66.2,0-66.2,0c-0.1-0.8-0.2-1.7-0.2-2.5c0-12.8,14.9-23.2,33.3-23.2S337,290.1,337,303c0,0.9-0.1,1.9-0.2,2.8"/>
				<path style="clip-path:url(#SVGID_00000111874384851416205060000018357391990522978716_);fill:#FFFEF8;" d="M318,295.1
					c11,1.9,18.5,5.9,18.5,10.4c0,6.4-14.8,11.6-33,11.6s-33-5.2-33-11.6s14.8-11.6,33-11.6C308.6,293.9,313.5,294.4,318,295.1"/>
			</g>
		</g>
		<g id="_x3C_Repetición_de_espejo_x3E__00000110438200625437495100000016475583451466115237_">
			<g>
				<defs>
					<polygon id="SVGID_00000037688958199345401350000010612696874553293247_" points="498.1,279.8 498.1,279.8 431.5,279.8 
						431.5,317.1 498.1,317.1 					"/>
				</defs>
				<clipPath id="SVGID_00000023262958411771680120000013712222236207285898_">
					<use xlink:href="#SVGID_00000037688958199345401350000010612696874553293247_"  style="overflow:visible;"/>
				</clipPath>
				<path style="clip-path:url(#SVGID_00000023262958411771680120000013712222236207285898_);fill:#D88B56;" d="M431.7,305.5
					c0,0,66.2,0,66.2,0c0.1-0.8,0.2-1.7,0.2-2.5c0-12.8-14.9-23.2-33.3-23.2s-33.3,10.4-33.3,23.2c0,0.9,0.1,1.9,0.2,2.8"/>
				<path style="clip-path:url(#SVGID_00000023262958411771680120000013712222236207285898_);fill:#FFFEF8;" d="M450.6,295.1
					c-11,1.9-18.5,5.9-18.5,10.4c0,6.4,14.8,11.6,33,11.6s33-5.2,33-11.6s-14.8-11.6-33-11.6C459.9,293.9,455,294.4,450.6,295.1"/>
			</g>
		</g>
	</g>
	<path class="st17" d="M318.3,295c0,0-13.5-2.3-25.8-0.5l0.1-0.2c-0.7,1.6-1.1,3.4-1.1,5.3c0,7.6,6.2,13.8,13.8,13.8
		s13.8-6.2,13.8-13.8c0-1.7-0.3-3.3-0.9-4.8"/>
	<circle class="st18" cx="302" cy="298.6" r="3.3"/>
	<line class="st19" x1="270.2" y1="305.5" x2="270.6" y2="305.5"/>
	<path class="st17" d="M479.3,295.2c0,0-13.5-2.3-25.8-0.5l0.1-0.2c-0.7,1.6-1.1,3.4-1.1,5.3c0,7.6,6.2,13.8,13.8,13.8
		s13.8-6.2,13.8-13.8c0-1.7-0.3-3.3-0.9-4.8"/>
	<circle class="st18" cx="463" cy="298.7" r="3.3"/>
</g>
<g id="cejas">
	<path class="st6" d="M248.4,272.1c0.6,0.3,5.6-13.4,19.7-21.9c13.4-8.1,28-7.1,31.7-6.8c26.3,2.2,38.3,21.6,45.5,16.8
		c5.6-3.7,4.8-20-3.2-29.5c-13.6-16.1-47-12.2-67.7,2.3C253.5,247.6,247.6,271.7,248.4,272.1z"/>
	<path class="st6" d="M520.7,272.1c-0.6,0.3-5.6-13.4-19.7-21.9c-13.4-8.1-28-7.1-31.7-6.8c-26.3,2.2-38.3,21.6-45.5,16.8
		c-5.6-3.7-4.8-20,3.2-29.5c13.6-16.1,47-12.2,67.7,2.3C515.6,247.6,521.4,271.7,520.7,272.1z"/>
</g>
<g id="lentes">
	<g>
		<g id="_x3C_Repetición_de_espejo_x3E__00000014620451468597279120000002957469365926198938_">
			<g>
				<defs>
					<polygon id="SVGID_00000031897721547906595890000000910612151418831278_" points="214.4,260.1 214.4,260.1 362.1,260.1 
						362.1,379.3 214.4,379.3 					"/>
				</defs>
				<clipPath id="SVGID_00000016069867074596421200000005260697009901589642_">
					<use xlink:href="#SVGID_00000031897721547906595890000000910612151418831278_"  style="overflow:visible;"/>
				</clipPath>
				
					<linearGradient id="SVGID_00000054232807703168930560000017012927327185455038_" gradientUnits="userSpaceOnUse" x1="288.2221" y1="379.2906" x2="288.2221" y2="260.0635">
					<stop  offset="9.776536e-02" style="stop-color:#0006AA;stop-opacity:0.32"/>
					<stop  offset="0.332" style="stop-color:#0208AB;stop-opacity:0.4965"/>
					<stop  offset="0.4658" style="stop-color:#0911AE;stop-opacity:0.5974"/>
					<stop  offset="0.5743" style="stop-color:#161FB3;stop-opacity:0.6792"/>
					<stop  offset="0.6693" style="stop-color:#2832BA;stop-opacity:0.7508"/>
					<stop  offset="0.7555" style="stop-color:#3F4CC3;stop-opacity:0.8157"/>
					<stop  offset="0.8353" style="stop-color:#5B6CCE;stop-opacity:0.8758"/>
					<stop  offset="0.9102" style="stop-color:#7C91DB;stop-opacity:0.9323"/>
					<stop  offset="0.9793" style="stop-color:#A2BCEA;stop-opacity:0.9844"/>
					<stop  offset="1" style="stop-color:#AFCAEF"/>
				</linearGradient>
				
					<path style="clip-path:url(#SVGID_00000016069867074596421200000005260697009901589642_);fill:url(#SVGID_00000054232807703168930560000017012927327185455038_);enable-background:new    ;" d="
					M362,292.3c-1.3-19.1-43.5-31-52.7-31.5c-5.5-0.3-51-2.8-69,4c-11.8,4.5-17.6,8-20.5,11.4c-1.3,1.5-2.2,3.2-2.9,5l-0.8,2.8
					c-0.1,0.7-0.7,3.3-0.8,4c-0.1,1.2-0.9,9-0.9,20.4c0,7.1,2.1,28.8,6.3,38.1c5.1,11.5,9,18.3,16.8,23.9c7.6,5.5,11.6,7.4,37.7,8.6
					c26.1,1.1,39.9-0.6,48.8-4c7.3-2.8,16.6-11.1,18.4-13.7c0,0,7-7.1,12.5-21.9C358.5,329,363,306.8,362,292.3z"/>
			</g>
		</g>
		<g id="_x3C_Repetición_de_espejo_x3E__00000174574418293328095390000015149088318215185321_">
			<g>
				<defs>
					<polygon id="SVGID_00000098919786151655145570000005158731872631688366_" points="554.1,260.1 554.1,260.1 406.4,260.1 
						406.4,379.3 554.1,379.3 					"/>
				</defs>
				<clipPath id="SVGID_00000144336994511017238590000016891135803246928256_">
					<use xlink:href="#SVGID_00000098919786151655145570000005158731872631688366_"  style="overflow:visible;"/>
				</clipPath>
				
					<linearGradient id="SVGID_00000075123102519558273900000012237153989920986785_" gradientUnits="userSpaceOnUse" x1="288.2221" y1="379.2906" x2="288.2221" y2="260.0635" gradientTransform="matrix(-1 0 0 1 768.4453 0)">
					<stop  offset="9.776536e-02" style="stop-color:#0006AA;stop-opacity:0.32"/>
					<stop  offset="0.332" style="stop-color:#0208AB;stop-opacity:0.4965"/>
					<stop  offset="0.4658" style="stop-color:#0911AE;stop-opacity:0.5974"/>
					<stop  offset="0.5743" style="stop-color:#161FB3;stop-opacity:0.6792"/>
					<stop  offset="0.6693" style="stop-color:#2832BA;stop-opacity:0.7508"/>
					<stop  offset="0.7555" style="stop-color:#3F4CC3;stop-opacity:0.8157"/>
					<stop  offset="0.8353" style="stop-color:#5B6CCE;stop-opacity:0.8758"/>
					<stop  offset="0.9102" style="stop-color:#7C91DB;stop-opacity:0.9323"/>
					<stop  offset="0.9793" style="stop-color:#A2BCEA;stop-opacity:0.9844"/>
					<stop  offset="1" style="stop-color:#AFCAEF"/>
				</linearGradient>
				
					<path style="clip-path:url(#SVGID_00000144336994511017238590000016891135803246928256_);fill:url(#SVGID_00000075123102519558273900000012237153989920986785_);enable-background:new    ;" d="
					M406.5,292.3c1.3-19.1,43.5-31,52.7-31.5c5.5-0.3,51-2.8,69,4c11.8,4.5,17.6,8,20.5,11.4c1.3,1.5,2.2,3.2,2.9,5l0.8,2.8
					c0.1,0.7,0.7,3.3,0.8,4c0.1,1.2,0.9,9,0.9,20.4c0,7.1-2.1,28.8-6.3,38.1c-5.1,11.5-9,18.3-16.8,23.9c-7.6,5.5-11.6,7.4-37.7,8.6
					c-26.1,1.1-39.9-0.6-48.8-4c-7.3-2.8-16.6-11.1-18.4-13.7c0,0-7-7.1-12.5-21.9C409.9,329,405.5,306.8,406.5,292.3z"/>
			</g>
		</g>
	</g>
	<path class="st22" d="M407.3,290h-46.2c-1.9,0-3.4-1.5-3.4-3.4v-0.3c0-1.9,1.5-3.4,3.4-3.4h46.2c1.9,0,3.4,1.5,3.4,3.4v0.3
		C410.7,288.5,409.2,290,407.3,290z"/>
</g>
</svg>
