<?xml version="1.0" encoding="utf-8"?>
<!-- Generator: Adobe Illustrator 26.0.3, SVG Export Plug-In . SVG Version: 6.00 Build 0)  -->
<svg version="1.1" xmlns="http://www.w3.org/2000/svg" xmlns:xlink="http://www.w3.org/1999/xlink" x="0px" y="0px"
	 viewBox="0 0 768 1024" style="enable-background:new 0 0 768 1024;" xml:space="preserve">
<style type="text/css">
	.st0{fill:#AB2B45;}
	.st1{fill:#D82B45;}
	.st2{fill:#B8BAC1;}
	.st3{fill:#D88B56;}
	.st4{fill:#1F4BFF;}
	.st5{fill:#E59B6A;}
	.st6{fill:#7C4729;}
	.st7{fill:url(#SVGID_1_);}
	.st8{fill:#23009F;}
	.st9{display:none;}
	.st10{fill:none;stroke:#707070;}
	.st11{clip-path:url(#SVGID_00000147929118500112550770000017441231136225265071_);fill:#D88B56;}
	.st12{clip-path:url(#SVGID_00000147929118500112550770000017441231136225265071_);fill:#FFFEF8;}
	.st13{clip-path:url(#SVGID_00000089551080458693932810000010778991006438549181_);fill:#D88B56;}
	.st14{clip-path:url(#SVGID_00000089551080458693932810000010778991006438549181_);fill:#FFFEF8;}
	.st15{fill:#773A11;}
	.st16{fill:#FFFFFF;}
	
		.st17{clip-path:url(#SVGID_00000048488382435720283080000015209274256087724942_);fill:url(#SVGID_00000085959209827737166900000014712054036567441319_);enable-background:new    ;}
	
		.st18{clip-path:url(#SVGID_00000170270589444715285650000007673397510761647787_);fill:url(#SVGID_00000178169798372683998500000005085794125712548775_);enable-background:new    ;}
	.st19{fill:#C4C435;}
</style>
<g id="ropa">
	<polygon class="st0" points="778.5,980.4 778.5,690.4 664.3,656.5 114.2,656.5 0,690.4 0,980.4 389,980.4 389.5,980.4 	"/>
	<path class="st1" d="M389.4,935c-11.9-75.3-58-86-114.5-123.5c-128.5-85.3-176-141.2-159.6-189.4c11-32.6,141.2-61.7,149.4-64.3
		h249.1c8.2,2.6,138.4,31.7,149.4,64.3c16.4,48.2-31.1,104.1-159.6,189.4C447.1,849,401.1,859.7,389.2,935"/>
	<path class="st2" d="M389.4,936.7c0-130.1-118.4-204.9-144-244.9c-30.2-47.3-23.2-60.5-22.3-68.8c2.5-22,41.7-43.6,41.7-43.6h248.9
		c0,0,39.2,21.6,41.7,43.6c0.9,8.3,7.9,21.5-22.3,68.8c-25.6,40-144,114.8-144,244.9"/>
</g>
<g id="cara">
	<path class="st3" d="M389.5,742.4c80,0,144.9-45.8,144.9-102.4c0-16.8-5.7-32.6-15.9-46.6c-1.2-1.7-2.5-3.3-3.8-4.9l-0.6-0.7v-49.1
		H264.9v49.1l-0.6,0.7c-1.3,1.6-2.6,3.2-3.8,4.9c-10.2,14-15.9,29.8-15.9,46.6C244.6,696.6,309.5,742.4,389.5,742.4"/>
	<path class="st4" d="M389,16.1c118.4,0,214.3,152.8,214.3,284.4s-90.2,296.7-208.5,296.7s-220.1-165-220.1-296.7
		S270.6,16.1,389,16.1z"/>
	<path class="st3" d="M559.5,377.9c9.1,32.5,11.4,38,11.4,38s0.2,7-4.5,10.9c-4.1,3.4-3.8,12.9-4.7,16.3c-0.9,3.6-2.1,6-2.5,6.5
		c-1.8,2.4-7,8.7-14.2,13.1H234c-7.3-4.4-12.4-10.7-14.2-13.1c-0.4-0.5-1.6-2.9-2.5-6.5c-0.8-3.4-0.6-12.9-4.7-16.3
		c-4.7-4-4.5-10.9-4.5-10.9s2.3-5.5,11.4-38"/>
	<path class="st5" d="M388.6,636.5c141.6-22.3,182.7-215.7,176.3-369.3c-1.3-30.7-10.4-60.5-26.7-86.5
		C471.3,74.3,359.8,58.2,279.5,132.4c-14.4,13.3-27.8,29.5-39.8,48.6c-16.2,25.9-25.4,55.7-26.7,86.2
		c-6.5,153.1,35.5,347.8,176.4,369.4"/>
	<path class="st6" d="M556.7,411.7c-11.7,90.7-38,123.6-42.3,132.8c0,0-8.9,22.4-40.6,53.5c-10.9,10.7-51.7,38.5-85.2,38.5h0.7
		c-33.5,0-74.2-27.8-85.2-38.5c-31.7-31.1-40.6-53.5-40.6-53.5c-4.3-9.2-30.3-41.7-42-131.1l-0.2-0.4c15.3,33.9,47.9,54.7,70.5,55.3
		c22.6,0.6,49.6-31.9,49.6-31.9s17.8-21.8,24.9-17.9c7.2,3.9,22.6,16.8,22.6,16.8h-0.2c0,0,15.5-12.9,22.6-16.8
		c7.2-3.9,24.9,17.9,24.9,17.9s27,32.4,49.6,31.9c22.6-0.6,55.2-21.4,70.5-55.3"/>
	<linearGradient id="SVGID_1_" gradientUnits="userSpaceOnUse" x1="389.45" y1="418.6385" x2="389.45" y2="224.6">
		<stop  offset="0.2077" style="stop-color:#E5B69C"/>
		<stop  offset="0.6022" style="stop-color:#E59B6A"/>
	</linearGradient>
	<path class="st7" d="M389.5,418.6c0,0-4.8,1-22.6-7.2c-17.9-8.2-12.5,0.5-12.5,0.5s4.3,3.2,2.2,4.2c-5.7,2.6-13-11.1-13-11.1
		s-4.8-10.8,3.8-17c9.1-6.5,15-12.7,15-12.7l14.7-68.1c0,0,9.8-44.2-16.8-69.2c-12.2-11.4-18.1-13.4-18.1-13.4h94.5
		c0,0-5.9,2-18.1,13.4c-26.6,25-16.8,69.2-16.8,69.2l14.7,68.1c0,0,5.9,6.2,15,12.7c8.6,6.1,3.8,17,3.8,17s-7.2,13.7-13,11.1
		c-2.1-0.9,2.2-4.2,2.2-4.2s5.4-8.7-12.5-0.5C394.3,419.6,389.5,418.6,389.5,418.6z"/>
	<path class="st6" d="M263,142.1c106.6,9.6,191.7,18.1,231.3,53.8c23.2,20.9,36.9,36.3,59,149.1s0,182.6,0,182.6
		s37.4-147.3,34.6-217c-1.4-34.2,0.3-58-42-134.5c-39.4-71.2-121.3-101.4-179.1-96.3S263,142.1,263,142.1z"/>
	<path class="st6" d="M263,142.1c0,0-25.2,33.5-44.5,63.3c-23.2,35.7-24.9,70.3-24.9,70.9c-13.6,126.3,28.3,240.9,28.3,240.9
		s-33.4-86.2-6.2-195.6s72.7-177.2,72.7-177.2"/>
	<path class="st8" d="M174.8,305.3c18-107.6,100.2-191.7,215.1-191.7c114.9,0,211.4,119.2,213.4,189.8l0,0
		c-2.7-126.3-37.4-267.5-213.7-264.1c-155.3,3-214.9,108.1-215,266L174.8,305.3z"/>
</g>
<g id="foto" class="st9">
	
		<image style="display:inline;overflow:visible;enable-background:new    ;" width="768" height="1024" id="WhatsApp_Image_2022-02-23_at_6.07.28_PM" xlink:href="D4B30C77.jpeg" >
	</image>
</g>
<g id="boca">
	<path class="st10" d="M389.5,486.6c15.6,0.2,15.6-3,15.6-3s38.6,2.8,44.4,7.6c0,0-22.8,11.7-60,11.7"/>
	<path class="st10" d="M449.6,491.1c0,0-21.5-18.5-42-17.8c0,0-7.5,3-18.1,2.5"/>
	<path class="st10" d="M329.5,491.1c0,0,22.8,11.7,60,11.7"/>
	<path class="st10" d="M389.5,486.6c-15.6,0.2-15.6-3-15.6-3s-38.6,2.8-44.4,7.6"/>
	<path class="st10" d="M329.5,491.1c0,0,21.5-18.5,42-17.8c0,0,7.5,3,18.1,2.5"/>
</g>
<g id="ojos">
	<g>
		<g id="_x3C_Repetici贸n_de_espejo_x3E__00000080165536500606697910000008774434952130947738_">
			<g>
				<defs>
					<polygon id="SVGID_00000147195939923878206840000009856841385219880126_" points="275.7,280.2 275.7,280.2 342.3,280.2 
						342.3,317.5 275.7,317.5 					"/>
				</defs>
				<clipPath id="SVGID_00000036974100207953009300000008014090824175408569_">
					<use xlink:href="#SVGID_00000147195939923878206840000009856841385219880126_"  style="overflow:visible;"/>
				</clipPath>
				<path style="clip-path:url(#SVGID_00000036974100207953009300000008014090824175408569_);fill:#D88B56;" d="M342.1,305.9
					c0,0-66.2,0-66.2,0c-0.1-0.8-0.2-1.7-0.2-2.5c0-12.8,14.9-23.2,33.3-23.2s33.3,10.4,33.3,23.2c0,0.9-0.1,1.9-0.2,2.8"/>
				<path style="clip-path:url(#SVGID_00000036974100207953009300000008014090824175408569_);fill:#FFFEF8;" d="M323.2,295.5
					c11,1.9,18.5,5.9,18.5,10.4c0,6.4-14.8,11.6-33,11.6s-33-5.2-33-11.6s14.8-11.6,33-11.6C313.9,294.3,318.8,294.8,323.2,295.5"/>
			</g>
		</g>
		<g id="_x3C_Repetici贸n_de_espejo_x3E__00000078003237744616501380000000934918611641932223_">
			<g>
				<defs>
					<polygon id="SVGID_00000069366729406251878930000004135739361376199611_" points="503.3,280.2 503.3,280.2 436.7,280.2 
						436.7,317.5 503.3,317.5 					"/>
				</defs>
				<clipPath id="SVGID_00000148658151330778272490000001690614588487683463_">
					<use xlink:href="#SVGID_00000069366729406251878930000004135739361376199611_"  style="overflow:visible;"/>
				</clipPath>
				<path style="clip-path:url(#SVGID_00000148658151330778272490000001690614588487683463_);fill:#D88B56;" d="M436.9,305.9
					c0,0,66.2,0,66.2,0c0.1-0.8,0.2-1.7,0.2-2.5c0-12.8-14.9-23.2-33.3-23.2s-33.3,10.4-33.3,23.2c0,0.9,0.1,1.9,0.2,2.8"/>
				<path style="clip-path:url(#SVGID_00000148658151330778272490000001690614588487683463_);fill:#FFFEF8;" d="M455.8,295.5
					c-11,1.9-18.5,5.9-18.5,10.4c0,6.4,14.8,11.6,33,11.6s33-5.2,33-11.6s-14.8-11.6-33-11.6C465.1,294.3,460.2,294.8,455.8,295.5"
					/>
			</g>
		</g>
	</g>
	<path class="st15" d="M323.5,295.5c0,0-13.5-2.3-25.8-0.5l0.1-0.2c-0.7,1.6-1.1,3.4-1.1,5.3c0,7.6,6.2,13.8,13.8,13.8
		s13.8-6.2,13.8-13.8c0-1.7-0.3-3.3-0.9-4.8"/>
	<circle class="st16" cx="307.2" cy="299" r="3.3"/>
	<line class="st10" x1="275.4" y1="305.9" x2="275.9" y2="305.9"/>
	<path class="st15" d="M484.5,295.6c0,0-13.5-2.3-25.8-0.5l0.1-0.2c-0.7,1.6-1.1,3.4-1.1,5.3c0,7.6,6.2,13.8,13.8,13.8
		s13.8-6.2,13.8-13.8c0-1.7-0.3-3.3-0.9-4.8"/>
	<circle class="st16" cx="468.2" cy="299.2" r="3.3"/>
</g>
<g id="lentes">
	<g>
		<g id="_x3C_Repetici贸n_de_espejo_x3E__00000059268161844812322360000017277339906941682604_">
			<g>
				<defs>
					<polygon id="SVGID_00000083047710103695897780000013035148561774182785_" points="219.6,260.5 219.6,260.5 367.3,260.5 
						367.3,379.7 219.6,379.7 					"/>
				</defs>
				<clipPath id="SVGID_00000147938292090266372540000015729297298805069741_">
					<use xlink:href="#SVGID_00000083047710103695897780000013035148561774182785_"  style="overflow:visible;"/>
				</clipPath>
				
					<linearGradient id="SVGID_00000160878122710967421340000004042356276943946643_" gradientUnits="userSpaceOnUse" x1="293.4721" y1="379.733" x2="293.4721" y2="260.5059">
					<stop  offset="9.776536e-02" style="stop-color:#0006AA;stop-opacity:0.32"/>
					<stop  offset="0.332" style="stop-color:#0208AB;stop-opacity:0.4965"/>
					<stop  offset="0.4658" style="stop-color:#0911AE;stop-opacity:0.5974"/>
					<stop  offset="0.5743" style="stop-color:#161FB3;stop-opacity:0.6792"/>
					<stop  offset="0.6693" style="stop-color:#2832BA;stop-opacity:0.7508"/>
					<stop  offset="0.7555" style="stop-color:#3F4CC3;stop-opacity:0.8157"/>
					<stop  offset="0.8353" style="stop-color:#5B6CCE;stop-opacity:0.8758"/>
					<stop  offset="0.9102" style="stop-color:#7C91DB;stop-opacity:0.9323"/>
					<stop  offset="0.9793" style="stop-color:#A2BCEA;stop-opacity:0.9844"/>
					<stop  offset="1" style="stop-color:#AFCAEF"/>
				</linearGradient>
				
					<path style="clip-path:url(#SVGID_00000147938292090266372540000015729297298805069741_);fill:url(#SVGID_00000160878122710967421340000004042356276943946643_);enable-background:new    ;" d="
					M367.2,292.7c-1.3-19.1-43.5-31-52.7-31.5c-5.5-0.3-51-2.8-69,4c-11.8,4.5-17.6,8-20.5,11.4c-1.3,1.5-2.2,3.2-2.9,5l-0.8,2.8
					c-0.1,0.7-0.7,3.3-0.8,4c-0.1,1.2-0.9,9-0.9,20.4c0,7.1,2.1,28.8,6.3,38.1c5.1,11.5,9,18.3,16.8,23.9c7.6,5.5,11.6,7.4,37.7,8.6
					c26.1,1.1,39.9-0.6,48.8-4c7.3-2.8,16.6-11.1,18.4-13.7c0,0,7-7.1,12.5-21.9C363.8,329.4,368.2,307.2,367.2,292.7z"/>
			</g>
		</g>
		<g id="_x3C_Repetici贸n_de_espejo_x3E__00000139259532584617892050000014870468461529310608_">
			<g>
				<defs>
					<polygon id="SVGID_00000171701647317384260870000005135012314166804651_" points="559.3,260.5 559.3,260.5 411.6,260.5 
						411.6,379.7 559.3,379.7 					"/>
				</defs>
				<clipPath id="SVGID_00000049179897850605458390000017954545197435972756_">
					<use xlink:href="#SVGID_00000171701647317384260870000005135012314166804651_"  style="overflow:visible;"/>
				</clipPath>
				
					<linearGradient id="SVGID_00000147927302878568639440000001320963871648984992_" gradientUnits="userSpaceOnUse" x1="293.4721" y1="379.733" x2="293.4721" y2="260.5059" gradientTransform="matrix(-1 0 0 1 778.9453 0)">
					<stop  offset="9.776536e-02" style="stop-color:#0006AA;stop-opacity:0.32"/>
					<stop  offset="0.332" style="stop-color:#0208AB;stop-opacity:0.4965"/>
					<stop  offset="0.4658" style="stop-color:#0911AE;stop-opacity:0.5974"/>
					<stop  offset="0.5743" style="stop-color:#161FB3;stop-opacity:0.6792"/>
					<stop  offset="0.6693" style="stop-color:#2832BA;stop-opacity:0.7508"/>
					<stop  offset="0.7555" style="stop-color:#3F4CC3;stop-opacity:0.8157"/>
					<stop  offset="0.8353" style="stop-color:#5B6CCE;stop-opacity:0.8758"/>
					<stop  offset="0.9102" style="stop-color:#7C91DB;stop-opacity:0.9323"/>
					<stop  offset="0.9793" style="stop-color:#A2BCEA;stop-opacity:0.9844"/>
					<stop  offset="1" style="stop-color:#AFCAEF"/>
				</linearGradient>
				
					<path style="clip-path:url(#SVGID_00000049179897850605458390000017954545197435972756_);fill:url(#SVGID_00000147927302878568639440000001320963871648984992_);enable-background:new    ;" d="
					M411.7,292.7c1.3-19.1,43.5-31,52.7-31.5c5.5-0.3,51-2.8,69,4c11.8,4.5,17.6,8,20.5,11.4c1.3,1.5,2.2,3.2,2.9,5l0.8,2.8
					c0.1,0.7,0.7,3.3,0.8,4c0.1,1.2,0.9,9,0.9,20.4c0,7.1-2.1,28.8-6.3,38.1c-5.1,11.5-9,18.3-16.8,23.9c-7.6,5.5-11.6,7.4-37.7,8.6
					c-26.1,1.1-39.9-0.6-48.8-4c-7.3-2.8-16.6-11.1-18.4-13.7c0,0-7-7.1-12.5-21.9C415.1,329.4,410.7,307.2,411.7,292.7z"/>
			</g>
		</g>
	</g>
	<path class="st19" d="M412.6,290.5h-46.2c-1.9,0-3.4-1.5-3.4-3.4v-0.3c0-1.9,1.5-3.4,3.4-3.4h46.2c1.9,0,3.4,1.5,3.4,3.4v0.3
		C416,288.9,414.4,290.5,412.6,290.5z"/>
</g>
<g id="cejas">
	<path class="st6" d="M253.7,272.5c0.6,0.3,5.6-13.4,19.7-21.9c13.4-8.1,28-7.1,31.7-6.8c26.3,2.2,38.3,21.6,45.5,16.8
		c5.6-3.7,4.8-20-3.2-29.5c-13.6-16.1-47-12.2-67.7,2.3C258.8,248,252.9,272.1,253.7,272.5z"/>
	<path class="st6" d="M526,272.5c-0.6,0.3-5.6-13.4-19.7-21.9c-13.4-8.1-28-7.1-31.7-6.8c-26.3,2.2-38.3,21.6-45.5,16.8
		c-5.6-3.7-4.8-20,3.2-29.5c13.6-16.1,47-12.2,67.7,2.3C520.9,248,526.7,272.1,526,272.5z"/>
</g>
</svg>
