<?xml version="1.0" encoding="utf-8"?>
<!-- Generator: Adobe Illustrator 26.0.3, SVG Export Plug-In . SVG Version: 6.00 Build 0)  -->
<svg version="1.1" xmlns="http://www.w3.org/2000/svg" xmlns:xlink="http://www.w3.org/1999/xlink" x="0px" y="0px"
	 viewBox="0 0 768 1024" style="enable-background:new 0 0 768 1024;" xml:space="preserve">
<style type="text/css">
	.st0{display:none;}
	.st1{fill:#1F4BFF;}
	.st2{fill:#D88B56;}
	.st3{fill:#DDA06F;}
	.st4{fill:#7C4729;}
	.st5{fill:#FFFEF8;}
	.st6{fill:none;stroke:#707070;}
	.st7{opacity:0.3;fill:#5FBDFF;}
	.st8{fill:none;stroke:#000000;}
</style>
<g id="Foto" class="st0">
	
		<image style="display:inline;overflow:visible;enable-background:new    ;" width="768" height="1024" id="WhatsApp_Image_2022-02-23_at_6.07.28_PM" xlink:href="D4B30C77.jpeg" >
	</image>
</g>
<g id="Cara">
	<ellipse class="st1" cx="389" cy="300.5" rx="214.3" ry="238.4"/>
	<path class="st2" d="M559.5,377.9c9.1,32.5,11.4,38,11.4,38s0.2,7-4.5,10.9c-4.1,3.4-3.8,12.9-4.7,16.3c-0.9,3.6-2.1,6-2.5,6.5
		c-1.8,2.4-7,8.7-14.2,13.1H234c-7.3-4.4-12.4-10.7-14.2-13.1c-0.4-0.5-1.6-2.9-2.5-6.5c-0.8-3.4-0.6-12.9-4.7-16.3
		c-4.7-4-4.5-10.9-4.5-10.9s2.3-5.5,11.4-38"/>
	<path class="st3" d="M389,631.6c33.1,0,73.3-27.2,84.1-37.7c31.3-30.4,40.1-52.3,40.1-52.3c4.7-10.2,36.9-49.5,45.3-165.5
		c4.1-57.1,1.7-86.3-1.7-95.3c-13-33.7-44.6-64.9-54.4-75.1c-13-13.4-44.8-32.4-64.4-39.2c-19.6-6.8-48.2-6.5-48.2-6.5H389
		c0,0-28.7-0.3-48.2,6.5c-19.6,6.8-51.4,25.8-64.4,39.2c-9.9,10.2-41.5,41.4-54.4,75.1c-3.5,9-5.8,38.2-1.7,95.3
		c8.4,116,40.6,155.3,45.3,165.5c0,0,8.8,21.9,40.1,52.3c10.8,10.5,51,37.7,84.1,37.7"/>
	<path class="st4" d="M555.1,411.7c-11.6,88.7-37.5,120.9-41.8,129.9c0,0-8.8,21.9-40.1,52.3c-10.8,10.5-51,37.7-84.1,37.7h0.7
		c-33.1,0-73.3-27.2-84.1-37.7c-31.3-30.4-40.1-52.3-40.1-52.3c-4.2-9-29.9-40.8-41.5-128.2l-0.2-0.4c15.1,33.2,47.3,53.5,69.6,54.1
		c22.3,0.6,49-31.2,49-31.2s17.6-21.3,24.6-17.5c7.1,3.8,22.3,16.4,22.3,16.4h-0.2c0,0,15.3-12.6,22.3-16.4
		c7.1-3.8,24.6,17.5,24.6,17.5s26.7,31.7,49,31.2c22.3-0.6,54.5-20.9,69.6-54.1"/>
	<path class="st5" d="M323.2,295.5c11,1.9,18.5,5.9,18.5,10.4c0,6.4-14.8,11.6-33,11.6c-18.2,0-33-5.2-33-11.6s14.8-11.6,33-11.6
		C313.9,294.3,318.8,294.8,323.2,295.5"/>
	<circle class="st6" cx="308.7" cy="300.5" r="4.8"/>
	<path class="st4" d="M257.2,272.5c0.6,0.3,5.6-13.4,19.7-21.9c13.4-8.1,28-7.1,31.7-6.8c26.3,2.2,38.3,21.6,45.5,16.8
		c5.6-3.7,4.8-20-3.2-29.5c-13.6-16.1-47-12.2-67.7,2.3C262.3,248,256.4,272.1,257.2,272.5z"/>
	<path class="st5" d="M455.6,295.5c-11,1.9-18.5,5.9-18.5,10.4c0,6.4,14.8,11.6,33,11.6s33-5.2,33-11.6s-14.8-11.6-33-11.6
		C464.9,294.3,460,294.8,455.6,295.5"/>
	<path class="st6" d="M503.1,305.3c-2.3-12.7-8.5-16.3-8.5-16.3s-6-6.8-19.7-8.8c-13.7-2-17.2-0.7-19.7-0.5
		c-8.6,0.9-17.2,9.6-15.3,9.4"/>
	<path class="st6" d="M455.8,295.5c-0.8,1.7-1.2,3.6-1.2,5.6c0,7.6,6.1,13.7,13.7,13.7c7.6,0,13.7-6.1,13.7-13.7
		c0-2.2-0.5-4.3-1.4-6.1"/>
	<path class="st4" d="M521.7,272.5c-0.6,0.3-5.6-13.4-19.7-21.9c-13.4-8.1-28-7.1-31.7-6.8c-26.3,2.2-38.3,21.6-45.5,16.8
		c-5.6-3.7-4.8-20,3.2-29.5c13.6-16.1,47-12.2,67.7,2.3C516.6,248,522.4,272.1,521.7,272.5z"/>
	<path class="st6" d="M389.5,486.6c15.6,0.2,15.6-3,15.6-3s38.6,2.8,44.4,7.6c0,0-22.8,11.7-60,11.7"/>
	<path class="st6" d="M449.6,491.1c0,0-21.5-18.5-42-17.8c0,0-7.5,3-18.1,2.5"/>
	<path class="st6" d="M329.5,491.1c0,0,22.8,11.7,60,11.7"/>
	<path class="st6" d="M389.5,486.6c-15.6,0.2-15.6-3-15.6-3s-38.6,2.8-44.4,7.6"/>
	<path class="st6" d="M329.5,491.1c0,0,21.5-18.5,42-17.8c0,0,7.5,3,18.1,2.5"/>
	<path class="st6" d="M544.6,464.7"/>
	<path class="st7" d="M367.2,292.7c-1.3-19.1-43.5-31-52.7-31.5c-5.5-0.3-51-2.8-69,4c-11.8,4.5-17.6,8-20.5,11.4
		c-1.3,1.5-2.2,3.2-2.9,5l-0.8,2.8c-0.1,0.7-0.7,3.3-0.8,4c-0.1,1.2-0.9,9-0.9,20.4c0,7.1,2.1,28.8,6.3,38.1
		c5.1,11.5,9,18.3,16.8,23.9c7.6,5.5,11.6,7.4,37.7,8.6c26.1,1.1,39.9-0.6,48.8-4c7.3-2.8,16.6-11.1,18.4-13.7c0,0,7-7.1,12.5-21.9
		C363.8,329.4,368.2,307.2,367.2,292.7z"/>
	<path class="st6" d="M411.6,292.7c1.3-19.1,43.5-31,52.7-31.5c5.5-0.3,51-2.8,69,4c11.8,4.5,17.6,8,20.5,11.4
		c1.3,1.5,2.2,3.2,2.9,5l0.8,2.8c0.1,0.7,0.7,3.3,0.8,4c0.1,1.2,0.9,9,0.9,20.4c0,7.1-2.1,28.8-6.3,38.1c-5.1,11.5-9,18.3-16.8,23.9
		c-7.6,5.5-11.6,7.4-37.7,8.6c-26.1,1.1-39.9-0.6-48.8-4c-7.3-2.8-16.6-11.1-18.4-13.7c0,0-7-7.1-12.5-21.9
		C415,329.4,410.6,307.2,411.6,292.7z"/>
	<path class="st6" d="M260.5,590.9"/>
	<path class="st6" d="M389.5,742.4c-80,0-144.9-45.8-144.9-102.4c0-16.8,5.7-32.6,15.9-46.6c1.2-1.7,2.5-3.3,3.8-4.9l0.6-0.7v-49.1"
		/>
	<path class="st6" d="M389.5,742.4c80,0,144.9-45.8,144.9-102.4c0-16.8-5.7-32.6-15.9-46.6c-1.2-1.7-2.5-3.3-3.8-4.9l-0.6-0.7v-49.1
		"/>
	<path class="st6" d="M264.8,579.4c0,0-39.2,21.6-41.7,43.6c-0.9,8.3-7.9,21.5,22.3,68.8c25.6,40,144,114.8,144,244.9"/>
	<path class="st6" d="M408.9,842.1"/>
	<path class="st6" d="M264.7,557.8c-8.2,2.6-138.4,31.7-149.4,64.3c-16.4,48.2,31.1,104.1,159.6,189.4
		C331.4,849,377.5,859.7,389.4,935"/>
	<path class="st6" d="M264.7,541.2"/>
	<line class="st6" x1="114.2" y1="656.5" x2="0" y2="690.4"/>
	<line class="st6" x1="0" y1="980.4" x2="0" y2="690.4"/>
	<line class="st6" x1="389" y1="980.4" x2="0" y2="980.4"/>
	<line class="st6" x1="389" y1="980.4" x2="389.4" y2="935"/>
	<path class="st6" d="M513.7,579.4c0,0,39.2,21.6,41.7,43.6c0.9,8.3,7.9,21.5-22.3,68.8c-25.6,40-144,114.8-144,244.9"/>
	<path class="st6" d="M513.8,557.8c8.2,2.6,138.4,31.7,149.4,64.3c16.4,48.2-31.1,104.1-159.6,189.4
		C447.1,849,401.1,859.7,389.2,935"/>
	<line class="st6" x1="664.3" y1="656.5" x2="778.5" y2="690.4"/>
	<line class="st6" x1="778.5" y1="980.4" x2="778.5" y2="690.4"/>
	<line class="st6" x1="389.5" y1="980.4" x2="778.5" y2="980.4"/>
	<path class="st2" d="M389.5,418.6c0,0-4.8,1-22.6-7.2c-17.9-8.2-12.5,0.5-12.5,0.5s4.3,3.2,2.2,4.2c-5.7,2.6-13-11.1-13-11.1
		s-4.8-10.8,3.8-17c9.1-6.5,15-12.7,15-12.7l14.7-68.1c0,0,9.8-44.2-16.8-69.2c-12.2-11.4-18.1-13.4-18.1-13.4s94.5,0,94.5,0
		s-5.9,2-18.1,13.4c-26.6,25-16.8,69.2-16.8,69.2l14.7,68.1c0,0,5.9,6.2,15,12.7c8.6,6.1,3.8,17,3.8,17s-7.2,13.7-13,11.1
		c-2.1-0.9,2.2-4.2,2.2-4.2s5.4-8.7-12.5-0.5C394.3,419.6,389.5,418.6,389.5,418.6z"/>
	<circle class="st6" cx="466.6" cy="300.5" r="4.8"/>
	<circle class="st6" cx="310.5" cy="300.6" r="13.8"/>
	<ellipse class="st6" cx="309" cy="303.4" rx="33.3" ry="23.2"/>
	<path class="st8" d="M323.5,295.9c11,1.9,18.5,5.9,18.5,10.4c0,6.4-14.8,11.6-33,11.6c-18.2,0-33-5.2-33-11.6s14.8-11.6,33-11.6
		C314.2,294.7,319.1,295.1,323.5,295.9"/>
</g>
</svg>
