<?xml version="1.0" encoding="utf-8"?>
<!-- Generator: Adobe Illustrator 26.0.3, SVG Export Plug-In . SVG Version: 6.00 Build 0)  -->
<svg version="1.1" id="profile-picture" xmlns="http://www.w3.org/2000/svg" xmlns:xlink="http://www.w3.org/1999/xlink" x="0px"
	 y="0px" viewBox="0 0 768 1024" style="enable-background:new 0 0 768 1024;" xml:space="preserve">
<style type="text/css">
	.st0{fill:#AB2B45;}
	.st1{fill:#D82B45;}
	.st2{fill:#B8BAC1;}
	.st3{fill:#D88B56;}
	.st4{fill:#1F4BFF;}
	.st5{fill:#E59B6A;}
	.st6{fill:url(#barbilla_00000011029923621825752590000010954523284827705486_);}
	.st7{fill:#7C4729;}
	.st8{fill:#F49DB8;}
	.st9{fill:#FFBF93;}
	.st10{fill:#23009F;}
	.st11{fill:none;stroke:#7A5C5C;}
	.st12{display:none;}
	.st13{display:inline;fill:#F49DB8;}
	.st14{display:inline;fill:#542A3B;}
	.st15{fill:#EF7373;}
	.st16{fill:#FFFEF8;}
	.st17{fill:#773A11;}
	.st18{stroke:#000000;stroke-miterlimit:10;}
	.st19{fill:#FFFFFF;}
	.st20{fill:url(#lente_izq_00000052079855053341554320000012634867327023321014_);}
	.st21{fill:url(#lente_der_00000178174954654604261990000007848434116371656110_);}
	.st22{fill:#C4C435;}
</style>
<g id="cara">
	<g id="ropa">
		<path id="campera-atras" class="st0" d="M-113.1,1024c0-227.2,222.7-411.3,497.3-411.3S881.5,796.8,881.5,1024"/>
		<path id="campera-frente" class="st1" d="M384.1,934.6c-11.9-75.3-58-86-114.5-123.5C141.1,725.8,93.6,669.9,110,621.7
			c11-32.6,141.2-61.7,149.4-64.3h249.1c8.2,2.6,138.4,31.7,149.4,64.3c16.4,48.2-31.1,104.1-159.6,189.4
			c-56.5,37.5-102.5,48.2-114.4,123.5"/>
		<path id="escote_remera" class="st2" d="M384.1,936.3c0-130.1-118.4-204.9-144-244.9c-30.2-47.3-23.2-60.5-22.3-68.8
			c2.5-22,41.7-43.6,41.7-43.6h248.9c0,0,39.2,21.6,41.7,43.6c0.9,8.3,7.9,21.5-22.3,68.8c-25.6,40-144,114.8-144,244.9"/>
	</g>
	<path id="cuello" class="st3" d="M384.2,742c80,0,144.9-45.8,144.9-102.4c0-16.8-5.7-32.6-15.9-46.6c-1.2-1.7-2.5-3.3-3.8-4.9
		l-0.6-0.7v-49.1H259.6v49.1l-0.6,0.7c-1.3,1.6-2.6,3.2-3.8,4.9c-10.2,14-15.9,29.8-15.9,46.6C239.4,696.2,304.2,742,384.2,742"/>
	<path id="gorro-atras" class="st4" d="M383.8,15.6C502.1,15.6,598,168.4,598,300.1s-90.2,296.7-208.5,296.7s-220.1-165-220.1-296.7
		S265.4,15.6,383.8,15.6z"/>
	<path id="orejas" class="st3" d="M554.2,377.5c9.1,32.5,11.4,38,11.4,38s0.2,7-4.5,10.9c-4.1,3.4-3.8,12.9-4.7,16.3
		c-0.9,3.6-2.1,6-2.5,6.5c-1.8,2.4-7,8.7-14.2,13.1h-311c-7.3-4.4-12.4-10.7-14.2-13.1c-0.4-0.5-1.6-2.9-2.5-6.5
		c-0.8-3.4-0.6-12.9-4.7-16.3c-4.7-4-4.5-10.9-4.5-10.9s2.3-5.5,11.4-38"/>
	<path id="cabeza" class="st5" d="M383.3,636.1C524.9,613.7,566,420.4,559.7,266.8c-1.3-30.7-10.4-60.5-26.7-86.5
		C466,73.9,354.6,57.7,274.2,131.9c-14.4,13.3-27.8,29.5-39.8,48.6c-16.2,25.9-25.4,55.7-26.7,86.2
		c-6.5,153.1,35.5,347.8,176.4,369.4"/>
	
		<radialGradient id="barbilla_00000041983063616595122070000017227163983306174100_" cx="384.1499" cy="-23.8864" r="85.1502" gradientTransform="matrix(1 0 0 0.4502 1.122996e-04 541.2196)" gradientUnits="userSpaceOnUse">
		<stop  offset="9.490659e-02" style="stop-color:#EEB99D"/>
		<stop  offset="0.2426" style="stop-color:#EAAC87"/>
		<stop  offset="0.4109" style="stop-color:#E7A377"/>
		<stop  offset="0.5974" style="stop-color:#E69D6D"/>
		<stop  offset="0.8356" style="stop-color:#E59B6A"/>
	</radialGradient>
	<path id="barbilla" style="fill:url(#barbilla_00000041983063616595122070000017227163983306174100_);" d="M386.1,533.8
		c14.9,0.1,32,5.3,38.6,4.4s13.1-8.7,5.5-11.6c-5.3-2-9.8-3.6-16.9-3.9s-0.5,0.4-14.3,0.8c-13.8,0.4-14.7,0.4-14.7,0.4H384
		c0,0-0.9,0.1-14.7-0.4c-13.8-0.4-7.1-1.1-14.3-0.8s-11.6,1.9-16.9,3.9c-7.6,2.8-1.1,10.6,5.5,11.6c6.6,0.9,23.6-4.3,38.6-4.4"/>
	<path class="st7" d="M551.1,412.6c-15.3,33.9-47.9,54.7-70.5,55.3C458,468.4,431,436,431,436s-17.7-21.8-24.9-17.9
		c-6.8,3.7-21.2,15.7-22.5,16.7c-1.3-1.1-15.6-13-22.5-16.7c-7.1-3.9-24.9,17.9-24.9,17.9s-27,32.5-49.6,31.9
		c-22.5-0.6-54.9-21.2-70.3-54.9c11.7,89.4,37.7,121.9,42,131.1c0,0,8.9,22.4,40.6,53.5c11,10.7,51.4,38.3,84.9,38.5
		c33.4-0.2,74-27.8,84.8-38.5c31.7-31.1,40.6-53.5,40.6-53.5c4.3-9.2,30.6-42.1,42.3-132.8L551.1,412.6z M431.2,534
		c0,0-11.2-10.9-23.2-10.7s-23.8,0.2-23.8,0.2s-11.8-0.1-23.8-0.2c-12-0.2-23.2,10.7-23.2,10.7s-30.2-9-18.4-47.4
		c0,0,26.6-26.5,46-25.9c19.4,0.6,19.4,0.4,19.4,0.4s0,0.2,19.4-0.4c19.4-0.6,46,25.9,46,25.9C461.4,525,431.2,534,431.2,534z"/>
	<path id="boca_cerrada_x5F_ext" class="st8" d="M383.7,475.4c10.6,0.5,18.1-2.5,18.1-2.5c20.5-0.7,42,17.8,42,17.8
		s-22.8,11.7-60,11.7h0.4c-37.2,0-60-11.7-60-11.7s21.5-18.5,42-17.8c0,0,7.5,3,18.1,2.5"/>
	<path id="frente-nariz" class="st9" d="M384.3,139.7h135.9l22.6,133.2c0,0-18.2-29.9-59.7-31c-18.3-1.1-50,9-62.3,18.2
		c-12.6,9.4-12.9,9.6-17.1,19.7c-2.9,7-0.2,37.3-0.2,37.3l7.8,57.8c0,0,5.9,6.2,15,12.7c8.6,6.2,3.8,17,3.8,17s-7.3,13.7-13,11.1
		c-2.1-1,2.2-4.2,2.2-4.2s5.4-8.7-12.5-0.5c-17.8,8.2-22.6,7.2-22.6,7.2s-4.8,1-22.6-7.2c-17.9-8.2-12.5,0.5-12.5,0.5
		s4.3,3.2,2.2,4.2c-5.7,2.6-13-11.1-13-11.1s-4.8-10.8,3.8-17c9.1-6.5,15-12.7,15-12.7l7.8-57.8c0,0,2.7-30.3-0.2-37.3
		c-4.1-10.1-4.5-10.3-17.1-19.7c-12.4-9.2-44-19.3-62.3-18.2c-41.5,1.1-59.7,31-59.7,31l22.6-133.2L384.3,139.7"/>
	<g>
		<path class="st7" d="M225.7,272.1c0.8,0.3,7.5-13.4,26.4-21.9c18-8.1,37.6-7.1,42.5-6.8c35.3,2.2,51.4,21.6,61,16.8
			c7.5-3.7,6.4-20-4.3-29.5c-18.2-16.1-63.1-12.2-90.8,2.3C232.6,247.6,224.7,271.7,225.7,272.1z"/>
		<path class="st7" d="M541.1,272.1c-0.8,0.3-7.5-13.4-26.4-21.9c-18-8.1-37.6-7.1-42.5-6.8c-35.3,2.2-51.4,21.6-61,16.8
			c-7.5-3.7-6.4-20,4.3-29.5c18.2-16.1,63.1-12.2,90.8,2.3C534.2,247.6,542.1,271.7,541.1,272.1z"/>
	</g>
	<g id="pelo">
		<path id="pelo-der" class="st7" d="M257.7,141.7c106.6,9.6,191.7,18.1,231.3,53.8c23.2,20.9,36.9,36.3,59,149.1s0,182.6,0,182.6
			s37.4-147.3,34.6-217c-1.4-34.2,0.3-58-42-134.5c-39.4-71.2-121.3-101.4-179.1-96.3S257.7,141.7,257.7,141.7z"/>
		<path id="pelo-izq" class="st7" d="M257.7,141.7c0,0-25.2,33.5-44.5,63.3c-23.2,35.7-24.9,70.3-24.9,70.9
			c-13.6,126.3,28.3,240.9,28.3,240.9s-33.4-86.2-6.2-195.6S283,144,283,144L257.7,141.7z"/>
	</g>
	<path id="goffo-frente" class="st10" d="M169.5,304.9c18-107.6,100.2-191.7,215.1-191.7S596,232.4,598,303l0,0
		c-2.7-126.3-37.4-267.5-213.7-264.1c-155.3,3-214.9,108.1-215,266H169.5z"/>
	<g id="ojos_cerrados">
		<g id="parpado_izq">
			<path id="parpado_fondo_izq" class="st3" d="M429.9,303c0,0.8,0.1,1.7,0.2,2.5c0,6.4,15.1,11.6,33.3,11.6c5.2,0,31-1.7,33-11.6
				c0.1-0.4,0.2-1.2,0-2.5c-1.5-10-16.3-23.2-33.3-23.2C444.7,279.8,429.9,290.1,429.9,303z"/>
			<path id="parpado_linea_izq" class="st11" d="M496.1,304.8l-2.7,0.8c-32.9,8.3-63.5-2-63.5-2"/>
		</g>
		<g id="parpado_der">
			<path id="parpado_fondo_der" class="st3" d="M337,303c0,0.8-0.1,1.7-0.2,2.5c0,6.4-15.1,11.6-33.3,11.6c-5.2,0-31-1.7-33-11.6
				c-0.1-0.4-0.2-1.2,0-2.5c1.5-10,16.3-23.2,33.3-23.2C322.2,279.8,337,290.1,337,303z"/>
			<path id="parpado_linea_der" class="st11" d="M270.7,304.8l2.7,0.8c32.9,8.3,63.5-2,63.5-2"/>
		</g>
	</g>
</g>
<g id="boca_abierta" class="st12">
	<path id="boca_abierta_ext" class="st13" d="M443.8,490.7c0,0-22.9,20-60.1,20c-18.6,0-33.5-5-43.7-10s-15.8-10-15.8-10
		s21.5-18.5,42-17.8c0,0,7.4,2.9,17.8,2.5c10.4,0.4,17.8-2.5,17.8-2.5C422.3,472.2,443.8,490.7,443.8,490.7z"/>
	<path id="boca_abierta_int" class="st14" d="M443,490.7c-33.4,7.7-57.1,7.6-59.3,7.6c-0.1,0-0.2,0-0.2,0c-2.2,0-25.9,0.1-59.3-7.6
		c0,0,3.7-2.6,19.7-8c15.4-5.2,38-1.8,39.7-1.5l0,0c1.7-0.3,24.2-3.7,39.7,1.5C439.3,488.1,443,490.7,443,490.7z"/>
</g>
<path id="labio_superior" class="st15" d="M383.7,475.4c10.6,0.5,18.1-2.5,18.1-2.5c20.5-0.7,42,17.8,42,17.8v0.1
	c-5.8-4.8-44.4-7.6-44.4-7.6s0,3.2-15.6,3h0.4c-15.6,0.2-15.6-3-15.6-3s-38.6,2.8-44.4,7.6v-0.1c0,0,21.5-18.5,42-17.8
	c0,0,7.5,3,18.1,2.5"/>
<g id="ojos_abiertos">
	<g id="ojo_derecho">
		<path id="esclera_00000168827827899866415740000004401619328665230001_" class="st16" d="M448,294.7c-11.1,1.9-18.7,5.9-18.7,10.4
			c0,6.4,15,11.6,33.4,11.6s33.4-5.2,33.4-11.6s-15-11.6-33.4-11.6C457.5,293.5,452.5,294,448,294.7"/>
		<path id="iris_00000168099540992788234590000003980937353147756470_" class="st17" d="M447.7,294.6c0,0,13.7-2.3,26.1-0.5
			l-0.1-0.2c0.7,1.6,1.1,3.4,1.1,5.3c0,7.6-6.3,13.8-14,13.8s-14-6.2-14-13.8c0-1.7,0.3-3.3,0.9-4.8"/>
		
			<ellipse id="pupila_00000177451743733911501190000004708249321727522466_" class="st18" cx="460.8" cy="300.1" rx="4.4" ry="4.3"/>
		
			<ellipse id="brillo_00000165236135770231990410000000134422231817328298_" class="st19" cx="456.7" cy="297.4" rx="2.6" ry="2.5"/>
	</g>
	<g id="ojo_izquierdo">
		<path id="esclera" class="st16" d="M318.5,294.7c11.1,1.9,18.7,5.9,18.7,10.4c0,6.4-15,11.6-33.4,11.6s-33.4-5.2-33.4-11.6
			s15-11.6,33.4-11.6C309,293.5,313.9,294,318.5,294.7"/>
		<path id="iris" class="st17" d="M318.8,294.6c0,0-13.7-2.3-26.1-0.5l0.1-0.2c-0.7,1.6-1.1,3.4-1.1,5.3c0,7.6,6.3,13.8,14,13.8
			s14-6.2,14-13.8c0-1.7-0.3-3.3-0.9-4.8"/>
		<ellipse id="pupila" class="st18" cx="305.6" cy="300.1" rx="4.4" ry="4.3"/>
		<ellipse id="brillo" class="st19" cx="301.5" cy="297.4" rx="2.6" ry="2.5"/>
	</g>
</g>
<g id="anteojo">
	<g id="lentes_00000114038240203791663840000013090791986334289071_">
		
			<linearGradient id="lente_izq_00000170275580043182695500000006012367958733805451_" gradientUnits="userSpaceOnUse" x1="288.2708" y1="900.6671" x2="288.2708" y2="1019.8942" gradientTransform="matrix(1 0 0 -1 0 1280)">
			<stop  offset="9.776536e-02" style="stop-color:#0006AA;stop-opacity:0.32"/>
			<stop  offset="0.332" style="stop-color:#0208AB;stop-opacity:0.4965"/>
			<stop  offset="0.4658" style="stop-color:#0911AE;stop-opacity:0.5974"/>
			<stop  offset="0.5743" style="stop-color:#161FB3;stop-opacity:0.6792"/>
			<stop  offset="0.6693" style="stop-color:#2832BA;stop-opacity:0.7508"/>
			<stop  offset="0.7555" style="stop-color:#3F4CC3;stop-opacity:0.8157"/>
			<stop  offset="0.8353" style="stop-color:#5B6CCE;stop-opacity:0.8758"/>
			<stop  offset="0.9102" style="stop-color:#7C91DB;stop-opacity:0.9323"/>
			<stop  offset="0.9793" style="stop-color:#A2BCEA;stop-opacity:0.9844"/>
			<stop  offset="1" style="stop-color:#AFCAEF"/>
		</linearGradient>
		<path id="lente_izq" style="fill:url(#lente_izq_00000170275580043182695500000006012367958733805451_);" d="M362,292.3
			c-1.3-19.1-43.5-31-52.7-31.5c-5.5-0.3-51-2.8-69,4c-11.8,4.5-17.6,8-20.5,11.4c-1.3,1.5-2.2,3.2-2.9,5l-0.8,2.8
			c-0.1,0.7-0.7,3.3-0.8,4c-0.1,1.2-0.9,9-0.9,20.4c0,7.1,2.1,28.8,6.3,38.1c5.1,11.5,9,18.3,16.8,23.9c7.6,5.5,11.6,7.4,37.7,8.6
			c26.1,1.1,39.9-0.6,48.8-4c7.3-2.8,16.6-11.1,18.4-13.7c0,0,7-7.1,12.5-21.9C358.5,329,363,306.8,362,292.3z"/>
		
			<linearGradient id="lente_der_00000089548468856623679190000003099338428509123510_" gradientUnits="userSpaceOnUse" x1="-1499.7826" y1="900.6671" x2="-1499.7826" y2="1019.8942" gradientTransform="matrix(-1 0 0 -1 -1019.5547 1280)">
			<stop  offset="9.776536e-02" style="stop-color:#0006AA;stop-opacity:0.32"/>
			<stop  offset="0.332" style="stop-color:#0208AB;stop-opacity:0.4965"/>
			<stop  offset="0.4658" style="stop-color:#0911AE;stop-opacity:0.5974"/>
			<stop  offset="0.5743" style="stop-color:#161FB3;stop-opacity:0.6792"/>
			<stop  offset="0.6693" style="stop-color:#2832BA;stop-opacity:0.7508"/>
			<stop  offset="0.7555" style="stop-color:#3F4CC3;stop-opacity:0.8157"/>
			<stop  offset="0.8353" style="stop-color:#5B6CCE;stop-opacity:0.8758"/>
			<stop  offset="0.9102" style="stop-color:#7C91DB;stop-opacity:0.9323"/>
			<stop  offset="0.9793" style="stop-color:#A2BCEA;stop-opacity:0.9844"/>
			<stop  offset="1" style="stop-color:#AFCAEF"/>
		</linearGradient>
		<path id="lente_der" style="fill:url(#lente_der_00000089548468856623679190000003099338428509123510_);" d="M406.5,292.3
			c1.3-19.1,43.5-31,52.7-31.5c5.5-0.3,51-2.8,69,4c11.8,4.5,17.6,8,20.5,11.4c1.3,1.5,2.2,3.2,2.9,5l0.8,2.8c0.1,0.7,0.7,3.3,0.8,4
			c0.1,1.2,0.9,9,0.9,20.4c0,7.1-2.1,28.8-6.3,38.1c-5.1,11.5-9,18.3-16.8,23.9c-7.6,5.5-11.6,7.4-37.7,8.6
			c-26.1,1.1-39.9-0.6-48.8-4c-7.3-2.8-16.6-11.1-18.4-13.7c0,0-7-7.1-12.5-21.9C409.9,329,405.5,306.8,406.5,292.3z"/>
	</g>
	<path id="anteojo_montura" class="st22" d="M405.6,296.4h-42.9c-1.7,0-3.1-1.4-3.1-3.1l0,0c0-1.7,1.4-3.1,3.1-3.1h42.9
		c1.7,0,3.1,1.4,3.1,3.1l0,0C408.8,295,407.4,296.4,405.6,296.4z"/>
</g>
</svg>
