<svg version="1.1" id="profile-picture" xmlns="http://www.w3.org/2000/svg" x="0" y="0" viewBox="0 0 768 1024" style="enable-background:new 0 0 768 1024" xml:space="preserve"><style>.st3{fill:#d88b56}.st7{fill:#7c4729}.st8{fill:#f49db8}.st11{fill:none;stroke:#7a5c5c}.st14{fill:#fffef8}.st15{fill:#773a11}.st16{stroke:#000;stroke-miterlimit:10}.st17{fill:#fff}</style><g id="cara"><g id="ropa"><path id="campera-atras" d="M-113.1 1024c0-227.2 222.7-411.3 497.3-411.3S881.5 796.8 881.5 1024" style="fill:#ab2b45"/><path id="campera-frente" d="M384.1 934.6c-11.9-75.3-58-86-114.5-123.5-128.5-85.3-176-141.2-159.6-189.4 11-32.6 141.2-61.7 149.4-64.3h249.1c8.2 2.6 138.4 31.7 149.4 64.3 16.4 48.2-31.1 104.1-159.6 189.4-56.5 37.5-102.5 48.2-114.4 123.5" style="fill:#d82b45"/><path id="escote_remera" d="M384.1 936.3c0-130.1-118.4-204.9-144-244.9-30.2-47.3-23.2-60.5-22.3-68.8 2.5-22 41.7-43.6 41.7-43.6h248.9s39.2 21.6 41.7 43.6c.9 8.3 7.9 21.5-22.3 68.8-25.6 40-144 114.8-144 244.9" style="fill:#b8bac1"/></g><path id="cuello" class="st3" d="M384.2 742c80 0 144.9-45.8 144.9-102.4 0-16.8-5.7-32.6-15.9-46.6-1.2-1.7-2.5-3.3-3.8-4.9l-.6-.7v-49.1H259.6v49.1l-.6.7c-1.3 1.6-2.6 3.2-3.8 4.9-10.2 14-15.9 29.8-15.9 46.6.1 56.6 64.9 102.4 144.9 102.4"/><path id="gorro-atras" d="M383.8 15.6C502.1 15.6 598 168.4 598 300.1s-90.2 296.7-208.5 296.7-220.1-165-220.1-296.7 96-284.5 214.4-284.5z" style="fill:#1f4bff"/><path id="orejas" class="st3" d="M554.2 377.5c9.1 32.5 11.4 38 11.4 38s.2 7-4.5 10.9c-4.1 3.4-3.8 12.9-4.7 16.3-.9 3.6-2.1 6-2.5 6.5-1.8 2.4-7 8.7-14.2 13.1h-311c-7.3-4.4-12.4-10.7-14.2-13.1-.4-.5-1.6-2.9-2.5-6.5-.8-3.4-.6-12.9-4.7-16.3-4.7-4-4.5-10.9-4.5-10.9s2.3-5.5 11.4-38"/><path id="cabeza" d="M383.3 636.1C524.9 613.7 566 420.4 559.7 266.8c-1.3-30.7-10.4-60.5-26.7-86.5-67-106.4-178.4-122.6-258.8-48.4-14.4 13.3-27.8 29.5-39.8 48.6-16.2 25.9-25.4 55.7-26.7 86.2-6.5 153.1 35.5 347.8 176.4 369.4" style="fill:#e59b6a"/><radialGradient id="barbilla_00000137847430592399148940000011657030263904159678_" cx="384.15" cy="-23.886" r="85.15" gradientTransform="matrix(1 0 0 .4502 0 541.22)" gradientUnits="userSpaceOnUse"><stop offset=".095" style="stop-color:#eeb99d"/><stop offset=".243" style="stop-color:#eaac87"/><stop offset=".411" style="stop-color:#e7a377"/><stop offset=".597" style="stop-color:#e69d6d"/><stop offset=".836" style="stop-color:#e59b6a"/></radialGradient><path id="barbilla" style="fill:url(#barbilla_00000137847430592399148940000011657030263904159678_)" d="M386.1 533.8c14.9.1 32 5.3 38.6 4.4s13.1-8.7 5.5-11.6c-5.3-2-9.8-3.6-16.9-3.9s-.5.4-14.3.8-14.7.4-14.7.4h-.3s-.9.1-14.7-.4c-13.8-.4-7.1-1.1-14.3-.8s-11.6 1.9-16.9 3.9c-7.6 2.8-1.1 10.6 5.5 11.6 6.6.9 23.6-4.3 38.6-4.4"/><path class="st7" d="M551.1 412.6c-15.3 33.9-47.9 54.7-70.5 55.3C458 468.4 431 436 431 436s-17.7-21.8-24.9-17.9c-6.8 3.7-21.2 15.7-22.5 16.7-1.3-1.1-15.6-13-22.5-16.7-7.1-3.9-24.9 17.9-24.9 17.9s-27 32.5-49.6 31.9c-22.5-.6-54.9-21.2-70.3-54.9 11.7 89.4 37.7 121.9 42 131.1 0 0 8.9 22.4 40.6 53.5 11 10.7 51.4 38.3 84.9 38.5 33.4-.2 74-27.8 84.8-38.5 31.7-31.1 40.6-53.5 40.6-53.5 4.3-9.2 30.6-42.1 42.3-132.8l-.4 1.3zM431.2 534S420 523.1 408 523.3s-23.8.2-23.8.2l-23.8-.2c-12-.2-23.2 10.7-23.2 10.7s-30.2-9-18.4-47.4c0 0 26.6-26.5 46-25.9 19.4.6 19.4.4 19.4.4s0 .2 19.4-.4c19.4-.6 46 25.9 46 25.9 11.8 38.4-18.4 47.4-18.4 47.4z"/><path id="boca_cerrada_x5F_ext" class="st8" d="M383.7 475.4c10.6.5 18.1-2.5 18.1-2.5 20.5-.7 42 17.8 42 17.8s-22.8 11.7-60 11.7h.4c-37.2 0-60-11.7-60-11.7s21.5-18.5 42-17.8c0 0 7.5 3 18.1 2.5"/><path id="frente-nariz" d="M384.3 139.7h135.9l22.6 133.2s-18.2-29.9-59.7-31c-18.3-1.1-50 9-62.3 18.2-12.6 9.4-12.9 9.6-17.1 19.7-2.9 7-.2 37.3-.2 37.3l7.8 57.8s5.9 6.2 15 12.7c8.6 6.2 3.8 17 3.8 17s-7.3 13.7-13 11.1c-2.1-1 2.2-4.2 2.2-4.2s5.4-8.7-12.5-.5c-17.8 8.2-22.6 7.2-22.6 7.2s-4.8 1-22.6-7.2c-17.9-8.2-12.5.5-12.5.5s4.3 3.2 2.2 4.2c-5.7 2.6-13-11.1-13-11.1s-4.8-10.8 3.8-17c9.1-6.5 15-12.7 15-12.7l7.8-57.8s2.7-30.3-.2-37.3c-4.1-10.1-4.5-10.3-17.1-19.7-12.4-9.2-44-19.3-62.3-18.2-41.5 1.1-59.7 31-59.7 31l22.6-133.2h136.1" style="fill:#ffbf93"/><path class="st7" d="M225.7 272.1c.8.3 7.5-13.4 26.4-21.9 18-8.1 37.6-7.1 42.5-6.8 35.3 2.2 51.4 21.6 61 16.8 7.5-3.7 6.4-20-4.3-29.5-18.2-16.1-63.1-12.2-90.8 2.3-27.9 14.6-35.8 38.7-34.8 39.1zM541.1 272.1c-.8.3-7.5-13.4-26.4-21.9-18-8.1-37.6-7.1-42.5-6.8-35.3 2.2-51.4 21.6-61 16.8-7.5-3.7-6.4-20 4.3-29.5 18.2-16.1 63.1-12.2 90.8 2.3 27.9 14.6 35.8 38.7 34.8 39.1z"/><g id="pelo"><path id="pelo-der" class="st7" d="M257.7 141.7c106.6 9.6 191.7 18.1 231.3 53.8 23.2 20.9 36.9 36.3 59 149.1s0 182.6 0 182.6 37.4-147.3 34.6-217c-1.4-34.2.3-58-42-134.5-39.4-71.2-121.3-101.4-179.1-96.3s-103.8 62.3-103.8 62.3z"/><path id="pelo-izq" class="st7" d="M257.7 141.7s-25.2 33.5-44.5 63.3c-23.2 35.7-24.9 70.3-24.9 70.9-13.6 126.3 28.3 240.9 28.3 240.9s-33.4-86.2-6.2-195.6S283 144 283 144l-25.3-2.3z"/></g><path id="goffo-frente" d="M169.5 304.9c18-107.6 100.2-191.7 215.1-191.7S596 232.4 598 303c-2.7-126.3-37.4-267.5-213.7-264.1-155.3 3-214.9 108.1-215 266h.2z" style="fill:#23009f"/><g id="ojos_cerrados"><g id="parpado_izq"><path id="parpado_fondo_izq" class="st3" d="M429.9 303c0 .8.1 1.7.2 2.5 0 6.4 15.1 11.6 33.3 11.6 5.2 0 31-1.7 33-11.6.1-.4.2-1.2 0-2.5-1.5-10-16.3-23.2-33.3-23.2-18.4 0-33.2 10.3-33.2 23.2z"/><path id="parpado_linea_izq" class="st11" d="m496.1 304.8-2.7.8c-32.9 8.3-63.5-2-63.5-2"/></g><g id="parpado_der"><path id="parpado_fondo_der" class="st3" d="M337 303c0 .8-.1 1.7-.2 2.5 0 6.4-15.1 11.6-33.3 11.6-5.2 0-31-1.7-33-11.6-.1-.4-.2-1.2 0-2.5 1.5-10 16.3-23.2 33.3-23.2 18.4 0 33.2 10.3 33.2 23.2z"/><path id="parpado_linea_der" class="st11" d="m270.7 304.8 2.7.8c32.9 8.3 63.5-2 63.5-2"/></g></g></g><g id="boca_abierta"><path id="boca_abierta_ext" class="st8" d="M443.8 490.7s-22.9 20-60.1 20c-18.6 0-33.5-5-43.7-10s-15.8-10-15.8-10 21.5-18.5 42-17.8c0 0 7.4 2.9 17.8 2.5 10.4.4 17.8-2.5 17.8-2.5 20.5-.7 42 17.8 42 17.8z"/><path id="boca_abierta_int" d="M443 490.7c-33.4 7.7-57.1 7.6-59.3 7.6h-.2c-2.2 0-25.9.1-59.3-7.6 0 0 3.7-2.6 19.7-8 15.4-5.2 38-1.8 39.7-1.5 1.7-.3 24.2-3.7 39.7 1.5 16 5.4 19.7 8 19.7 8z" style="fill:#542a3b"/></g><path id="labio_superior" d="M383.7 475.4c10.6.5 18.1-2.5 18.1-2.5 20.5-.7 42 17.8 42 17.8v.1c-5.8-4.8-44.4-7.6-44.4-7.6s0 3.2-15.6 3h.4c-15.6.2-15.6-3-15.6-3s-38.6 2.8-44.4 7.6v-.1s21.5-18.5 42-17.8c0 0 7.5 3 18.1 2.5" style="fill:#ef7373"/><g id="ojos_abiertos"><g id="ojo_derecho"><path id="esclera_00000168827827899866415740000004401619328665230001_" class="st14" d="M448 294.7c-11.1 1.9-18.7 5.9-18.7 10.4 0 6.4 15 11.6 33.4 11.6s33.4-5.2 33.4-11.6-15-11.6-33.4-11.6c-5.2 0-10.2.5-14.7 1.2"/><path id="iris_00000168099540992788234590000003980937353147756470_" class="st15" d="M447.7 294.6s13.7-2.3 26.1-.5l-.1-.2c.7 1.6 1.1 3.4 1.1 5.3 0 7.6-6.3 13.8-14 13.8s-14-6.2-14-13.8c0-1.7.3-3.3.9-4.8"/><ellipse id="pupila_00000177451743733911501190000004708249321727522466_" class="st16" cx="460.8" cy="300.1" rx="4.4" ry="4.3"/><ellipse id="brillo_00000165236135770231990410000000134422231817328298_" class="st17" cx="456.7" cy="297.4" rx="2.6" ry="2.5"/></g><g id="ojo_izquierdo"><path id="esclera" class="st14" d="M318.5 294.7c11.1 1.9 18.7 5.9 18.7 10.4 0 6.4-15 11.6-33.4 11.6s-33.4-5.2-33.4-11.6 15-11.6 33.4-11.6c5.2 0 10.1.5 14.7 1.2"/><path id="iris" class="st15" d="M318.8 294.6s-13.7-2.3-26.1-.5l.1-.2c-.7 1.6-1.1 3.4-1.1 5.3 0 7.6 6.3 13.8 14 13.8s14-6.2 14-13.8c0-1.7-.3-3.3-.9-4.8"/><ellipse id="pupila" class="st16" cx="305.6" cy="300.1" rx="4.4" ry="4.3"/><ellipse id="brillo" class="st17" cx="301.5" cy="297.4" rx="2.6" ry="2.5"/></g></g><g id="anteojo"><g id="lentes_00000114038240203791663840000013090791986334289071_"><linearGradient id="lente_izq_00000088095651574803789560000008107715587177690782_" gradientUnits="userSpaceOnUse" x1="288.271" y1="900.667" x2="288.271" y2="1019.894" gradientTransform="matrix(1 0 0 -1 0 1280)"><stop offset=".098" style="stop-color:#0006aa;stop-opacity:.32"/><stop offset=".332" style="stop-color:#0208ab;stop-opacity:.4965"/><stop offset=".466" style="stop-color:#0911ae;stop-opacity:.5974"/><stop offset=".574" style="stop-color:#161fb3;stop-opacity:.6792"/><stop offset=".669" style="stop-color:#2832ba;stop-opacity:.7508"/><stop offset=".755" style="stop-color:#3f4cc3;stop-opacity:.8157"/><stop offset=".835" style="stop-color:#5b6cce;stop-opacity:.8758"/><stop offset=".91" style="stop-color:#7c91db;stop-opacity:.9323"/><stop offset=".979" style="stop-color:#a2bcea;stop-opacity:.9844"/><stop offset="1" style="stop-color:#afcaef"/></linearGradient><path id="lente_izq" style="fill:url(#lente_izq_00000088095651574803789560000008107715587177690782_)" d="M362 292.3c-1.3-19.1-43.5-31-52.7-31.5-5.5-.3-51-2.8-69 4-11.8 4.5-17.6 8-20.5 11.4-1.3 1.5-2.2 3.2-2.9 5l-.8 2.8c-.1.7-.7 3.3-.8 4-.1 1.2-.9 9-.9 20.4 0 7.1 2.1 28.8 6.3 38.1 5.1 11.5 9 18.3 16.8 23.9 7.6 5.5 11.6 7.4 37.7 8.6 26.1 1.1 39.9-.6 48.8-4 7.3-2.8 16.6-11.1 18.4-13.7 0 0 7-7.1 12.5-21.9 3.6-10.4 8.1-32.6 7.1-47.1z"/><linearGradient id="lente_der_00000159429818811786321340000017311363725358279614_" gradientUnits="userSpaceOnUse" x1="-1499.783" y1="900.667" x2="-1499.783" y2="1019.894" gradientTransform="rotate(180 -509.777 640)"><stop offset=".098" style="stop-color:#0006aa;stop-opacity:.32"/><stop offset=".332" style="stop-color:#0208ab;stop-opacity:.4965"/><stop offset=".466" style="stop-color:#0911ae;stop-opacity:.5974"/><stop offset=".574" style="stop-color:#161fb3;stop-opacity:.6792"/><stop offset=".669" style="stop-color:#2832ba;stop-opacity:.7508"/><stop offset=".755" style="stop-color:#3f4cc3;stop-opacity:.8157"/><stop offset=".835" style="stop-color:#5b6cce;stop-opacity:.8758"/><stop offset=".91" style="stop-color:#7c91db;stop-opacity:.9323"/><stop offset=".979" style="stop-color:#a2bcea;stop-opacity:.9844"/><stop offset="1" style="stop-color:#afcaef"/></linearGradient><path id="lente_der" style="fill:url(#lente_der_00000159429818811786321340000017311363725358279614_)" d="M406.5 292.3c1.3-19.1 43.5-31 52.7-31.5 5.5-.3 51-2.8 69 4 11.8 4.5 17.6 8 20.5 11.4 1.3 1.5 2.2 3.2 2.9 5l.8 2.8c.1.7.7 3.3.8 4 .1 1.2.9 9 .9 20.4 0 7.1-2.1 28.8-6.3 38.1-5.1 11.5-9 18.3-16.8 23.9-7.6 5.5-11.6 7.4-37.7 8.6-26.1 1.1-39.9-.6-48.8-4-7.3-2.8-16.6-11.1-18.4-13.7 0 0-7-7.1-12.5-21.9-3.7-10.4-8.1-32.6-7.1-47.1z"/></g><path id="anteojo_montura" d="M405.6 296.4h-42.9c-1.7 0-3.1-1.4-3.1-3.1 0-1.7 1.4-3.1 3.1-3.1h42.9c1.7 0 3.1 1.4 3.1 3.1.1 1.7-1.3 3.1-3.1 3.1z" style="fill:#c4c435"/></g></svg>