<?xml version="1.0" encoding="utf-8"?>
<!-- Generator: Adobe Illustrator 26.0.3, SVG Export Plug-In . SVG Version: 6.00 Build 0)  -->
<svg version="1.1" id="Capa_1" xmlns="http://www.w3.org/2000/svg" xmlns:xlink="http://www.w3.org/1999/xlink" x="0px" y="0px"
	 viewBox="0 0 768 1024" style="enable-background:new 0 0 768 1024;" xml:space="preserve">
<style type="text/css">
	.st0{fill:#AB2B45;}
	.st1{fill:#D82B45;}
	.st2{fill:#B8BAC1;}
	.st3{fill:#D88B56;}
	.st4{fill:#1F4BFF;}
	.st5{fill:#E59B6A;}
	.st6{fill:url(#SVGID_1_);}
	.st7{fill:#7C4729;}
	.st8{clip-path:url(#SVGID_00000021104839021084328520000013661056638855413688_);fill:#E59B6A;}
	.st9{clip-path:url(#SVGID_00000168108910985015101270000008596818097211946154_);fill:#E59B6A;}
	.st10{clip-path:url(#SVGID_00000134232200130879699610000001265369023320459918_);fill:#FFBF93;}
	.st11{clip-path:url(#SVGID_00000095339564835124510860000011321963539928828035_);fill:#FFBF93;}
	.st12{clip-path:url(#SVGID_00000149339948731501938540000011639007391038642326_);}
	.st13{clip-path:url(#SVGID_00000134940323284677548470000008016279542074990497_);}
	.st14{fill:#23009F;}
	.st15{fill:#F49DB8;}
	.st16{fill:#EF7373;}
	.st17{clip-path:url(#SVGID_00000113333325291947433010000005714965270813219729_);fill:#D88B56;}
	.st18{clip-path:url(#SVGID_00000093166613530628219030000012680278882070556547_);fill:#FFFEF8;}
	.st19{clip-path:url(#SVGID_00000181049274044783676170000007029803522039714708_);fill:#D88B56;}
	.st20{clip-path:url(#SVGID_00000144302180807168190600000004856818775456746647_);fill:#FFFEF8;}
	.st21{fill:#773A11;}
	.st22{fill:#FFFFFF;}
	.st23{fill:none;stroke:#707070;}
	
		.st24{clip-path:url(#SVGID_00000151528193499692554330000008634258302017498262_);fill:url(#SVGID_00000059311055117595981130000006236786265437119132_);}
	
		.st25{clip-path:url(#SVGID_00000038415299854334566850000017145098554267300482_);fill:url(#SVGID_00000168114365723236999600000009770255445089866669_);}
	.st26{fill:none;stroke:#000000;stroke-miterlimit:10;}
	.st27{fill:#C4C435;}
</style>
<g id="ropa">
	<path class="st0" d="M-113.1,1024c0-227.2,222.7-411.3,497.3-411.3S881.5,796.8,881.5,1024"/>
	<path class="st1" d="M384.1,934.6c-11.9-75.3-58-86-114.5-123.5C141.1,725.8,93.6,669.9,110,621.7c11-32.6,141.2-61.7,149.4-64.3
		h249.1c8.2,2.6,138.4,31.7,149.4,64.3c16.4,48.2-31.1,104.1-159.6,189.4c-56.5,37.5-102.5,48.2-114.4,123.5"/>
	<path class="st2" d="M384.1,936.3c0-130.1-118.4-204.9-144-244.9c-30.2-47.3-23.2-60.5-22.3-68.8c2.5-22,41.7-43.6,41.7-43.6h248.9
		c0,0,39.2,21.6,41.7,43.6c0.9,8.3,7.9,21.5-22.3,68.8c-25.6,40-144,114.8-144,244.9"/>
</g>
<g id="cara">
	<path class="st3" d="M384.2,742c80,0,144.9-45.8,144.9-102.4c0-16.8-5.7-32.6-15.9-46.6c-1.2-1.7-2.5-3.3-3.8-4.9l-0.6-0.7v-49.1
		H259.6v49.1l-0.6,0.7c-1.3,1.6-2.6,3.2-3.8,4.9c-10.2,14-15.9,29.8-15.9,46.6C239.4,696.2,304.2,742,384.2,742"/>
	<path class="st4" d="M383.8,15.6C502.1,15.6,598,168.4,598,300.1s-90.2,296.7-208.5,296.7s-220.1-165-220.1-296.7
		S265.4,15.6,383.8,15.6z"/>
	<path class="st3" d="M554.2,377.5c9.1,32.5,11.4,38,11.4,38s0.2,7-4.5,10.9c-4.1,3.4-3.8,12.9-4.7,16.3c-0.9,3.6-2.1,6-2.5,6.5
		c-1.8,2.4-7,8.7-14.2,13.1h-311c-7.3-4.4-12.4-10.7-14.2-13.1c-0.4-0.5-1.6-2.9-2.5-6.5c-0.8-3.4-0.6-12.9-4.7-16.3
		c-4.7-4-4.5-10.9-4.5-10.9s2.3-5.5,11.4-38"/>
	<path class="st5" d="M383.3,636.1C524.9,613.7,566,420.4,559.7,266.8c-1.3-30.7-10.4-60.5-26.7-86.5
		C466,73.9,354.6,57.7,274.2,131.9c-14.4,13.3-27.8,29.5-39.8,48.6c-16.2,25.9-25.4,55.7-26.7,86.2
		c-6.5,153.1,35.5,347.8,176.4,369.4"/>
	
		<radialGradient id="SVGID_1_" cx="384.1499" cy="635.5682" r="85.1501" gradientTransform="matrix(1 0 0 -0.4502 1.122996e-04 816.5988)" gradientUnits="userSpaceOnUse">
		<stop  offset="9.490659e-02" style="stop-color:#EEB99D"/>
		<stop  offset="0.2426" style="stop-color:#EAAC87"/>
		<stop  offset="0.4109" style="stop-color:#E7A377"/>
		<stop  offset="0.5974" style="stop-color:#E69D6D"/>
		<stop  offset="0.8356" style="stop-color:#E59B6A"/>
	</radialGradient>
	<path class="st6" d="M386.1,533.8c14.9,0.1,32,5.3,38.6,4.4s13.1-8.7,5.5-11.6c-5.3-2-9.8-3.6-16.9-3.9s-0.5,0.4-14.3,0.8
		c-13.8,0.4-14.7,0.4-14.7,0.4H384c0,0-0.9,0.1-14.7-0.4c-13.8-0.4-7.1-1.1-14.3-0.8s-11.6,1.9-16.9,3.9c-7.6,2.8-1.1,10.6,5.5,11.6
		c6.6,0.9,23.6-4.3,38.6-4.4"/>
	<path class="st7" d="M551.5,411.3c-11.7,90.7-38,123.6-42.3,132.8c0,0-8.9,22.4-40.6,53.5c-10.9,10.7-51.7,38.5-85.2,38.5h0.7
		c-33.5,0-74.2-27.8-85.2-38.5c-31.7-31.1-40.6-53.5-40.6-53.5c-4.3-9.2-30.3-41.7-42-131.1l-0.2-0.4c15.3,33.9,47.9,54.7,70.5,55.3
		c22.6,0.6,49.6-31.9,49.6-31.9s17.8-21.8,24.9-17.9c7.2,3.9,22.6,16.8,22.6,16.8h-0.2c0,0,15.5-12.9,22.6-16.8
		c7.2-3.9,24.9,17.9,24.9,17.9s27,32.4,49.6,31.9c22.6-0.6,55.2-21.4,70.5-55.3"/>
	<g>
		<g id="_x3C_Repetición_de_espejo_x3E__00000078734469218388187050000017567303291423080125_">
			<g>
				<g>
					<g>
						<defs>
							<rect id="SVGID_00000071518219912149658520000016442530952237539995_" x="316" y="460.7" width="68.2" height="73.3"/>
						</defs>
						<clipPath id="SVGID_00000128447568130593377610000009635624149808465292_">
							<use xlink:href="#SVGID_00000071518219912149658520000016442530952237539995_"  style="overflow:visible;"/>
						</clipPath>
						<path style="clip-path:url(#SVGID_00000128447568130593377610000009635624149808465292_);fill:#E59B6A;" d="M318.8,486.6
							C307,525,337.2,534,337.2,534s11.7-14.1,23.2-10.7s39,3.3,39,3.3l-4.6-65.4c0,0-10.6,0.1-30-0.5S318.8,486.6,318.8,486.6z"/>
					</g>
				</g>
			</g>
		</g>
		<g id="_x3C_Repetición_de_espejo_x3E__00000124844525530576077520000006502347369836148124_">
			<g>
				<g>
					<g>
						<defs>
							<rect id="SVGID_00000026123251283080208720000003033660243591377793_" x="384.2" y="460.7" width="68.2" height="73.3"/>
						</defs>
						<clipPath id="SVGID_00000125572238652486649330000017589788180871945600_">
							<use xlink:href="#SVGID_00000026123251283080208720000003033660243591377793_"  style="overflow:visible;"/>
						</clipPath>
						<path style="clip-path:url(#SVGID_00000125572238652486649330000017589788180871945600_);fill:#E59B6A;" d="M449.6,486.6
							c11.8,38.4-18.4,47.4-18.4,47.4s-11.7-14.1-23.2-10.7s-39,3.3-39,3.3l4.6-65.4c0,0,10.6,0.1,30-0.5S449.6,486.6,449.6,486.6z"
							/>
					</g>
				</g>
			</g>
		</g>
	</g>
	<g>
		<g id="_x3C_Repetición_de_espejo_x3E__00000111152560966843764750000006482188469845532594_">
			<g>
				<defs>
					<rect id="SVGID_00000037671475623049211660000008087838368626363579_" x="225.6" y="139.7" width="158.6" height="278.6"/>
				</defs>
				<clipPath id="SVGID_00000016770767920779021240000009835923430527939722_">
					<use xlink:href="#SVGID_00000037671475623049211660000008087838368626363579_"  style="overflow:visible;"/>
				</clipPath>
				<path style="clip-path:url(#SVGID_00000016770767920779021240000009835923430527939722_);fill:#FFBF93;" d="M384.2,418.2
					c0,0-4.8,1-22.6-7.2c-17.9-8.2-12.5,0.5-12.5,0.5s4.3,3.2,2.2,4.2c-5.7,2.6-13-11.1-13-11.1s-4.8-10.8,3.8-17
					c9.1-6.5,15-12.7,15-12.7l7.8-57.8c0,0,2.7-30.3-0.2-37.3c-4.1-10.1-4.5-10.3-17.1-19.7c-12.4-9.2-44-19.3-62.3-18.2
					c-41.5,1.1-59.7,31-59.7,31l22.6-133.2h135.9"/>
			</g>
		</g>
		<g id="_x3C_Repetición_de_espejo_x3E__00000154427614240650919040000002247611316191436979_">
			<g>
				<defs>
					<rect id="SVGID_00000057145953932347488890000013212823223843750537_" x="384.2" y="139.7" width="158.6" height="278.6"/>
				</defs>
				<clipPath id="SVGID_00000128464404512139225960000018330905534710399420_">
					<use xlink:href="#SVGID_00000057145953932347488890000013212823223843750537_"  style="overflow:visible;"/>
				</clipPath>
				<path style="clip-path:url(#SVGID_00000128464404512139225960000018330905534710399420_);fill:#FFBF93;" d="M384.2,418.2
					c0,0,4.8,1,22.6-7.2c17.9-8.2,12.5,0.5,12.5,0.5s-4.3,3.2-2.2,4.2c5.7,2.6,13-11.1,13-11.1s4.8-10.8-3.8-17
					c-9.1-6.5-15-12.7-15-12.7l-7.8-57.8c0,0-2.7-30.3,0.2-37.3c4.1-10.1,4.5-10.3,17.1-19.7c12.4-9.2,44-19.3,62.3-18.2
					c41.5,1.1,59.7,31,59.7,31l-22.6-133.2H384.3"/>
			</g>
		</g>
	</g>
	<g id="cejas_00000154405913951536178730000017278500594521299119_">
		<g id="_x3C_Repetición_de_espejo_x3E__00000088823832497729132900000015656131929834263173_">
			<g>
				<defs>
					<rect id="SVGID_00000092434867772042350700000004502890210244845960_" x="225.6" y="220.3" width="134.9" height="51.8"/>
				</defs>
				<clipPath id="SVGID_00000162345649450202385020000012821768600606641067_">
					<use xlink:href="#SVGID_00000092434867772042350700000004502890210244845960_"  style="overflow:visible;"/>
				</clipPath>
				
					<g id="cejas_00000005266576004365765300000011282596185064672904_" style="clip-path:url(#SVGID_00000162345649450202385020000012821768600606641067_);">
					<path class="st7" d="M225.7,272.1c0.8,0.3,7.5-13.4,26.4-21.9c18-8.1,37.6-7.1,42.5-6.8c35.3,2.2,51.4,21.6,61,16.8
						c7.5-3.7,6.4-20-4.3-29.5c-18.2-16.1-63.1-12.2-90.8,2.3C232.6,247.6,224.7,271.7,225.7,272.1z"/>
				</g>
			</g>
		</g>
		<g id="_x3C_Repetición_de_espejo_x3E__00000098941113062255793120000010705191944830336385_">
			<g>
				<defs>
					<rect id="SVGID_00000133524487069081334780000016292695163384676015_" x="406.3" y="220.3" width="134.9" height="51.8"/>
				</defs>
				<clipPath id="SVGID_00000018202067681142218620000017218105672706741685_">
					<use xlink:href="#SVGID_00000133524487069081334780000016292695163384676015_"  style="overflow:visible;"/>
				</clipPath>
				
					<g id="cejas_00000067922803133406988440000017067812810847899034_" style="clip-path:url(#SVGID_00000018202067681142218620000017218105672706741685_);">
					<path class="st7" d="M541.1,272.1c-0.8,0.3-7.5-13.4-26.4-21.9c-18-8.1-37.6-7.1-42.5-6.8c-35.3,2.2-51.4,21.6-61,16.8
						c-7.5-3.7-6.4-20,4.3-29.5c18.2-16.1,63.1-12.2,90.8,2.3C534.3,247.6,542.2,271.7,541.1,272.1z"/>
				</g>
			</g>
		</g>
	</g>
	<path class="st7" d="M257.7,141.7c106.6,9.6,191.7,18.1,231.3,53.8c23.2,20.9,36.9,36.3,59,149.1s0,182.6,0,182.6
		s37.4-147.3,34.6-217c-1.4-34.2,0.3-58-42-134.5c-39.4-71.2-121.3-101.4-179.1-96.3S257.7,141.7,257.7,141.7z"/>
	<path class="st7" d="M257.7,141.7c0,0-25.2,33.5-44.5,63.3c-23.2,35.7-24.9,70.3-24.9,70.9c-13.6,126.3,28.3,240.9,28.3,240.9
		s-33.4-86.2-6.2-195.6S283,144,283,144"/>
	<path class="st14" d="M169.5,304.9c18-107.6,100.2-191.7,215.1-191.7S596,232.4,598,303l0,0c-2.7-126.3-37.4-267.5-213.7-264.1
		c-155.3,3-214.9,108.1-215,266H169.5z"/>
</g>
<g id="boca">
	<path class="st15" d="M383.7,475.4c10.6,0.5,18.1-2.5,18.1-2.5c20.5-0.7,42,17.8,42,17.8s-22.8,11.7-60,11.7h0.4
		c-37.2,0-60-11.7-60-11.7s21.5-18.5,42-17.8c0,0,7.5,3,18.1,2.5"/>
	<path class="st16" d="M383.7,475.4c10.6,0.5,18.1-2.5,18.1-2.5c20.5-0.7,42,17.8,42,17.8v0.1c-5.8-4.8-44.4-7.6-44.4-7.6
		s0,3.2-15.6,3h0.4c-15.6,0.2-15.6-3-15.6-3s-38.6,2.8-44.4,7.6v-0.1c0,0,21.5-18.5,42-17.8c0,0,7.5,3,18.1,2.5"/>
</g>
<g id="ojos">
	<g>
		<g id="_x3C_Repetición_de_espejo_x3E__00000024713451461708658100000009165479384763350174_">
			<g>
				<g>
					<g>
						<defs>
							<polygon id="SVGID_00000028318536189565496200000012362733439538051730_" points="270.5,279.8 270.5,279.8 337,279.8 
								337,317.1 270.5,317.1 							"/>
						</defs>
						<clipPath id="SVGID_00000174598790316848183540000017818867872591785127_">
							<use xlink:href="#SVGID_00000028318536189565496200000012362733439538051730_"  style="overflow:visible;"/>
						</clipPath>
						<path style="clip-path:url(#SVGID_00000174598790316848183540000017818867872591785127_);fill:#D88B56;" d="M336.9,305.5
							h-66.2c-0.1-0.8-0.2-1.7-0.2-2.5c0-12.8,14.9-23.2,33.3-23.2S337,290.1,337,303c0,0.9-0.1,1.9-0.2,2.8"/>
					</g>
				</g>
				<g>
					<g>
						<defs>
							<polygon id="SVGID_00000155855855031242174840000009917976870145559436_" points="270.5,279.8 270.5,279.8 337,279.8 
								337,317.1 270.5,317.1 							"/>
						</defs>
						<clipPath id="SVGID_00000053532002448666132380000009383164444290260896_">
							<use xlink:href="#SVGID_00000155855855031242174840000009917976870145559436_"  style="overflow:visible;"/>
						</clipPath>
						<path style="clip-path:url(#SVGID_00000053532002448666132380000009383164444290260896_);fill:#FFFEF8;" d="M318,295.1
							c11,1.9,18.5,5.9,18.5,10.4c0,6.4-14.8,11.6-33,11.6s-33-5.2-33-11.6s14.8-11.6,33-11.6C308.6,293.9,313.5,294.4,318,295.1"/>
					</g>
				</g>
			</g>
		</g>
		<g id="_x3C_Repetición_de_espejo_x3E__00000110438200625437495100000016475583451466115237_">
			<g>
				<g>
					<g>
						<defs>
							<polygon id="SVGID_00000110473194435838680800000001394235799323856282_" points="498.1,279.8 498.1,279.8 431.5,279.8 
								431.5,317.1 498.1,317.1 							"/>
						</defs>
						<clipPath id="SVGID_00000018237239246440293380000012858209313804900537_">
							<use xlink:href="#SVGID_00000110473194435838680800000001394235799323856282_"  style="overflow:visible;"/>
						</clipPath>
						<path style="clip-path:url(#SVGID_00000018237239246440293380000012858209313804900537_);fill:#D88B56;" d="M431.7,305.5h66.2
							c0.1-0.8,0.2-1.7,0.2-2.5c0-12.8-14.9-23.2-33.3-23.2s-33.3,10.4-33.3,23.2c0,0.9,0.1,1.9,0.2,2.8"/>
					</g>
				</g>
				<g>
					<g>
						<defs>
							<polygon id="SVGID_00000093145935813236164400000005322909339120310684_" points="498.1,279.8 498.1,279.8 431.5,279.8 
								431.5,317.1 498.1,317.1 							"/>
						</defs>
						<clipPath id="SVGID_00000111906468105042328760000013721500945920684982_">
							<use xlink:href="#SVGID_00000093145935813236164400000005322909339120310684_"  style="overflow:visible;"/>
						</clipPath>
						<path style="clip-path:url(#SVGID_00000111906468105042328760000013721500945920684982_);fill:#FFFEF8;" d="M450.6,295.1
							c-11,1.9-18.5,5.9-18.5,10.4c0,6.4,14.8,11.6,33,11.6s33-5.2,33-11.6s-14.8-11.6-33-11.6C459.9,293.9,455,294.4,450.6,295.1"
							/>
					</g>
				</g>
			</g>
		</g>
	</g>
	<path class="st21" d="M318.3,295c0,0-13.5-2.3-25.8-0.5l0.1-0.2c-0.7,1.6-1.1,3.4-1.1,5.3c0,7.6,6.2,13.8,13.8,13.8
		s13.8-6.2,13.8-13.8c0-1.7-0.3-3.3-0.9-4.8"/>
	<circle class="st22" cx="302" cy="298.6" r="3.3"/>
	<line class="st23" x1="270.2" y1="305.5" x2="270.6" y2="305.5"/>
	<path class="st21" d="M479.3,295.2c0,0-13.5-2.3-25.8-0.5l0.1-0.2c-0.7,1.6-1.1,3.4-1.1,5.3c0,7.6,6.2,13.8,13.8,13.8
		s13.8-6.2,13.8-13.8c0-1.7-0.3-3.3-0.9-4.8"/>
	<circle class="st22" cx="463" cy="298.7" r="3.3"/>
</g>
<g id="lentes">
	<g>
		<g id="_x3C_Repetición_de_espejo_x3E__00000014620451468597279120000002957469365926198938_">
			<g>
				<g>
					<g>
						<defs>
							<polygon id="SVGID_00000163782258228575236030000010928706608833874085_" points="214.4,260.1 214.4,260.1 362.1,260.1 
								362.1,379.3 214.4,379.3 							"/>
						</defs>
						<clipPath id="SVGID_00000020386234659164398460000007612427841910118799_">
							<use xlink:href="#SVGID_00000163782258228575236030000010928706608833874085_"  style="overflow:visible;"/>
						</clipPath>
						
							<linearGradient id="SVGID_00000146487013431756466460000008408271797026957961_" gradientUnits="userSpaceOnUse" x1="288.2708" y1="123.3329" x2="288.2708" y2="4.1058" gradientTransform="matrix(1 0 0 1 0 256)">
							<stop  offset="9.776536e-02" style="stop-color:#0006AA;stop-opacity:0.32"/>
							<stop  offset="0.332" style="stop-color:#0208AB;stop-opacity:0.4965"/>
							<stop  offset="0.4658" style="stop-color:#0911AE;stop-opacity:0.5974"/>
							<stop  offset="0.5743" style="stop-color:#161FB3;stop-opacity:0.6792"/>
							<stop  offset="0.6693" style="stop-color:#2832BA;stop-opacity:0.7508"/>
							<stop  offset="0.7555" style="stop-color:#3F4CC3;stop-opacity:0.8157"/>
							<stop  offset="0.8353" style="stop-color:#5B6CCE;stop-opacity:0.8758"/>
							<stop  offset="0.9102" style="stop-color:#7C91DB;stop-opacity:0.9323"/>
							<stop  offset="0.9793" style="stop-color:#A2BCEA;stop-opacity:0.9844"/>
							<stop  offset="1" style="stop-color:#AFCAEF"/>
						</linearGradient>
						
							<path style="clip-path:url(#SVGID_00000020386234659164398460000007612427841910118799_);fill:url(#SVGID_00000146487013431756466460000008408271797026957961_);" d="
							M362,292.3c-1.3-19.1-43.5-31-52.7-31.5c-5.5-0.3-51-2.8-69,4c-11.8,4.5-17.6,8-20.5,11.4c-1.3,1.5-2.2,3.2-2.9,5l-0.8,2.8
							c-0.1,0.7-0.7,3.3-0.8,4c-0.1,1.2-0.9,9-0.9,20.4c0,7.1,2.1,28.8,6.3,38.1c5.1,11.5,9,18.3,16.8,23.9
							c7.6,5.5,11.6,7.4,37.7,8.6c26.1,1.1,39.9-0.6,48.8-4c7.3-2.8,16.6-11.1,18.4-13.7c0,0,7-7.1,12.5-21.9
							C358.5,329,363,306.8,362,292.3z"/>
					</g>
				</g>
			</g>
		</g>
		<g id="_x3C_Repetición_de_espejo_x3E__00000174574418293328095390000015149088318215185321_">
			<g>
				<g>
					<g>
						<defs>
							<polygon id="SVGID_00000041288667829546556260000011124388173434226560_" points="554.1,260.1 554.1,260.1 406.4,260.1 
								406.4,379.3 554.1,379.3 							"/>
						</defs>
						<clipPath id="SVGID_00000159429490075625433950000015220015917294321567_">
							<use xlink:href="#SVGID_00000041288667829546556260000011124388173434226560_"  style="overflow:visible;"/>
						</clipPath>
						
							<linearGradient id="SVGID_00000060723810689589953050000010022915391918864778_" gradientUnits="userSpaceOnUse" x1="-903.7827" y1="123.3329" x2="-903.7827" y2="4.1058" gradientTransform="matrix(-1 0 0 1 -423.5547 256)">
							<stop  offset="9.776536e-02" style="stop-color:#0006AA;stop-opacity:0.32"/>
							<stop  offset="0.332" style="stop-color:#0208AB;stop-opacity:0.4965"/>
							<stop  offset="0.4658" style="stop-color:#0911AE;stop-opacity:0.5974"/>
							<stop  offset="0.5743" style="stop-color:#161FB3;stop-opacity:0.6792"/>
							<stop  offset="0.6693" style="stop-color:#2832BA;stop-opacity:0.7508"/>
							<stop  offset="0.7555" style="stop-color:#3F4CC3;stop-opacity:0.8157"/>
							<stop  offset="0.8353" style="stop-color:#5B6CCE;stop-opacity:0.8758"/>
							<stop  offset="0.9102" style="stop-color:#7C91DB;stop-opacity:0.9323"/>
							<stop  offset="0.9793" style="stop-color:#A2BCEA;stop-opacity:0.9844"/>
							<stop  offset="1" style="stop-color:#AFCAEF"/>
						</linearGradient>
						
							<path style="clip-path:url(#SVGID_00000159429490075625433950000015220015917294321567_);fill:url(#SVGID_00000060723810689589953050000010022915391918864778_);" d="
							M406.5,292.3c1.3-19.1,43.5-31,52.7-31.5c5.5-0.3,51-2.8,69,4c11.8,4.5,17.6,8,20.5,11.4c1.3,1.5,2.2,3.2,2.9,5l0.8,2.8
							c0.1,0.7,0.7,3.3,0.8,4c0.1,1.2,0.9,9,0.9,20.4c0,7.1-2.1,28.8-6.3,38.1c-5.1,11.5-9,18.3-16.8,23.9
							c-7.6,5.5-11.6,7.4-37.7,8.6c-26.1,1.1-39.9-0.6-48.8-4c-7.3-2.8-16.6-11.1-18.4-13.7c0,0-7-7.1-12.5-21.9
							C409.9,329,405.5,306.8,406.5,292.3z"/>
					</g>
				</g>
			</g>
		</g>
	</g>
</g>
<path class="st26" d="M383.7,434.9"/>
<path class="st26" d="M383.7,0"/>
<path class="st27" d="M405.6,296.4h-42.9c-1.7,0-3.1-1.4-3.1-3.1l0,0c0-1.7,1.4-3.1,3.1-3.1h42.9c1.7,0,3.1,1.4,3.1,3.1l0,0
	C408.8,295,407.4,296.4,405.6,296.4z"/>
</svg>
