<svg id="profile-picture" xmlns="http://www.w3.org/2000/svg" xmlns:xlink="http://www.w3.org/1999/xlink" viewBox="0 0 994.6 1008.4"><defs><style>.cls-1{fill:#ab2b45;}.cls-2{fill:#d82b45;}.cls-3{fill:#b8bac1;}.cls-4{fill:#d88b56;}.cls-5{fill:#1f4bff;}.cls-6{fill:#fff;}.cls-7{fill:#7c4729;}.cls-8{stroke:#000;stroke-miterlimit:10;}.cls-9{fill:#e59b6a;}.cls-10{fill:url(#Degradado_sin_nombre);}.cls-11{fill:#f49db8;}.cls-12{fill:#ffbf93;}.cls-13{fill:#23009f;}.cls-14{fill:#542a3b;}.cls-15{fill:#ef7373;}.cls-16{fill:none;stroke:#7a5c5c;}.cls-17{fill:url(#Degradado_sin_nombre_2);}.cls-18{fill:url(#Degradado_sin_nombre_3);}.cls-19{fill:#c4c435;}</style><radialGradient id="Degradado_sin_nombre" cx="383.68" cy="-23.89" r="85.15" gradientTransform="translate(0 541.22) scale(1 0.45)" gradientUnits="userSpaceOnUse"><stop offset="0.09" stop-color="#eeb99d"/><stop offset="0.24" stop-color="#eaac87"/><stop offset="0.41" stop-color="#e7a377"/><stop offset="0.6" stop-color="#e69d6d"/><stop offset="0.84" stop-color="#e59b6a"/></radialGradient><linearGradient id="Degradado_sin_nombre_2" x1="288.27" y1="900.67" x2="288.27" y2="1019.89" gradientTransform="matrix(1, 0, 0, -1, 0, 1280)" gradientUnits="userSpaceOnUse"><stop offset="0.1" stop-color="#0006aa" stop-opacity="0.32"/><stop offset="0.33" stop-color="#0208ab" stop-opacity="0.5"/><stop offset="0.47" stop-color="#0911ae" stop-opacity="0.6"/><stop offset="0.57" stop-color="#161fb3" stop-opacity="0.68"/><stop offset="0.67" stop-color="#2832ba" stop-opacity="0.75"/><stop offset="0.76" stop-color="#3f4cc3" stop-opacity="0.82"/><stop offset="0.84" stop-color="#5b6cce" stop-opacity="0.88"/><stop offset="0.91" stop-color="#7c91db" stop-opacity="0.93"/><stop offset="0.98" stop-color="#a2bcea" stop-opacity="0.98"/><stop offset="1" stop-color="#afcaef"/></linearGradient><linearGradient id="Degradado_sin_nombre_3" x1="-1499.78" y1="900.67" x2="-1499.78" y2="1019.89" gradientTransform="translate(-1019.55 1280) rotate(180)" xlink:href="#Degradado_sin_nombre_2"/></defs><g id="cara"><g id="ropa"><path id="campera-atras" class="cls-1" d="M-113.57,1024c0-227.2,222.7-411.3,497.3-411.3S881,796.8,881,1024" transform="translate(113.57 -15.6)"/><path id="campera-frente" class="cls-2" d="M383.63,934.6c-11.9-75.3-58-86-114.5-123.5-128.5-85.3-176-141.2-159.6-189.4,11-32.6,141.2-61.7,149.4-64.3H508c8.2,2.6,138.4,31.7,149.4,64.3,16.4,48.2-31.1,104.1-159.6,189.4-56.5,37.5-102.5,48.2-114.4,123.5" transform="translate(113.57 -15.6)"/><path id="escote_remera" data-name="escote remera" class="cls-3" d="M383.63,936.3c0-130.1-118.4-204.9-144-244.9-30.2-47.3-23.2-60.5-22.3-68.8,2.5-22,41.7-43.6,41.7-43.6h248.9s39.2,21.6,41.7,43.6c.9,8.3,7.9,21.5-22.3,68.8-25.6,40-144,114.8-144,244.9" transform="translate(113.57 -15.6)"/></g><path id="cuello" class="cls-4" d="M383.73,742c80,0,144.9-45.8,144.9-102.4,0-16.8-5.7-32.6-15.9-46.6-1.2-1.7-2.5-3.3-3.8-4.9l-.6-.7V538.3H259.13v49.1l-.6.7c-1.3,1.6-2.6,3.2-3.8,4.9-10.2,14-15.9,29.8-15.9,46.6.1,56.6,64.9,102.4,144.9,102.4" transform="translate(113.57 -15.6)"/><path id="gorro-atras" class="cls-5" d="M383.33,15.6c118.3,0,214.2,152.8,214.2,284.5S507.33,596.8,389,596.8s-220.1-165-220.1-296.7S264.93,15.6,383.33,15.6Z" transform="translate(113.57 -15.6)"/><path id="orejas" class="cls-4" d="M553.73,377.5c9.1,32.5,11.4,38,11.4,38s.2,7-4.5,10.9c-4.1,3.4-3.8,12.9-4.7,16.3a22.43,22.43,0,0,1-2.5,6.5,54.79,54.79,0,0,1-14.2,13.1h-311A53.11,53.11,0,0,1,214,449.2a22.43,22.43,0,0,1-2.5-6.5c-.8-3.4-.6-12.9-4.7-16.3-4.7-4-4.5-10.9-4.5-10.9s2.3-5.5,11.4-38" transform="translate(113.57 -15.6)"/><rect id="blanco_ojos" data-name="blanco ojos" class="cls-6" x="369.9" y="264.2" width="254.8" height="49.45"/><g id="ojos_abiertos" data-name="ojos abiertos"><g id="ojo_derecho" data-name="ojo derecho"><circle id="iris" class="cls-7" cx="578.62" cy="284.42" r="11.28"/><ellipse id="pupila" class="cls-8" cx="578.62" cy="284.42" rx="4.4" ry="4.3"/><ellipse id="brillo" class="cls-6" cx="574.52" cy="281.72" rx="2.6" ry="2.5"/></g><g id="ojo_izquierdo" data-name="ojo izquierdo"><circle id="iris-2" data-name="iris" class="cls-7" cx="423.42" cy="284.42" r="11.28"/><ellipse id="pupila-2" data-name="pupila" class="cls-8" cx="423.42" cy="284.42" rx="4.4" ry="4.3"/><ellipse id="brillo-2" data-name="brillo" class="cls-6" cx="419.32" cy="281.72" rx="2.6" ry="2.5"/></g></g><path id="cara-2" data-name="cara" class="cls-9" d="M559.93,266.8a176.73,176.73,0,0,0-26.7-86.5c-67-106.4-178.4-122.6-258.8-48.4a238.53,238.53,0,0,0-39.8,48.6,177,177,0,0,0-26.7,86.2c-6.49,153,35.42,347.42,176,369.33C525.21,613.34,566.23,420.26,559.93,266.8ZM303.84,317.1c-4,0-20.18-1-28.35-6l-.11-.07-.29-.17c-2.83-1.7-4.46-3.68-4.46-5.78a4.13,4.13,0,0,1,.11-.86,8.65,8.65,0,0,1,.1-1.24c1.5-10,16.3-23.2,33.3-23.2,18.4,0,33.2,10.3,33.2,23.2,0,.35,0,.71,0,1.08a4.47,4.47,0,0,1,.14,1,5,5,0,0,1-1.21,3.1C332.68,313.3,319.4,317.1,303.84,317.1Zm184.38-4.44c-8.62,3.65-21.75,4.44-25.29,4.44-17.4,0-32-4.75-33.2-10.77a4,4,0,0,1-.2-1.23,2,2,0,0,1,0-.24,16.94,16.94,0,0,1-.13-1.86c0-12.9,14.8-23.2,33.2-23.2,17,0,31.8,13.2,33.3,23.2,0,.15,0,.27,0,.4a4.26,4.26,0,0,1,.36,1.7C496.33,308,493.27,310.63,488.22,312.66Z" transform="translate(113.57 -15.6)"/><path id="parpado_rec_der" data-name="parpado rec der" class="cls-4" d="M448.23,294.7a96.13,96.13,0,0,1,14.7-1.2c16.75,0,30.67,4.31,33,9.9,0-.13,0-.25,0-.4-1.5-10-16.3-23.2-33.3-23.2-18.4,0-33.2,10.3-33.2,23.2a16.94,16.94,0,0,0,.13,1.86C429.82,300.46,437.33,296.57,448.23,294.7Z" transform="translate(113.57 -15.6)"/><path id="parpado_rec_izq" data-name="parpado rec izq" class="cls-4" d="M304,293.5a97.2,97.2,0,0,1,14.7,1.2c10.26,1.75,17.51,5.3,18.56,9.38,0-.37,0-.73,0-1.08,0-12.9-14.8-23.2-33.2-23.2-17,0-31.8,13.2-33.3,23.2a8.65,8.65,0,0,0-.1,1.24C272,298.24,286.47,293.5,304,293.5Z" transform="translate(113.57 -15.6)"/><path id="barbilla" class="cls-10" d="M385.63,533.8c14.9.1,32,5.3,38.6,4.4s13.1-8.7,5.5-11.6c-5.3-2-9.8-3.6-16.9-3.9s-.5.4-14.3.8-14.7.4-14.7.4h-.3s-.9.1-14.7-.4-7.1-1.1-14.3-.8-11.6,1.9-16.9,3.9c-7.6,2.8-1.1,10.6,5.5,11.6s23.6-4.3,38.6-4.4" transform="translate(113.57 -15.6)"/><path id="barba" class="cls-7" d="M550.63,412.6c-15.3,33.9-47.9,54.7-70.5,55.3s-49.6-31.9-49.6-31.9-17.7-21.8-24.9-17.9c-6.79,3.73-21.23,15.66-22.5,16.72-1.27-1.06-15.62-13-22.5-16.72-7.1-3.9-24.9,17.9-24.9,17.9s-27,32.5-49.6,31.9-54.92-21.23-70.3-54.87c11.7,89.38,37.7,121.87,42,131.07,0,0,8.9,22.4,40.6,53.5,11,10.66,51.42,38.3,84.85,38.49,33.43-.19,74-27.83,84.85-38.49,31.7-31.1,40.6-53.5,40.6-53.5,4.3-9.2,30.6-42.1,42.3-132.8ZM430.73,534s-11.2-10.9-23.2-10.7-23.8.2-23.8.2l-23.8-.2c-12-.2-23.2,10.7-23.2,10.7s-30.2-9-18.4-47.4c0,0,26.6-26.5,46-25.9s19.4.4,19.4.4,0,.2,19.4-.4,46,25.9,46,25.9C460.93,525,430.73,534,430.73,534Z" transform="translate(113.57 -15.6)"/><path id="boca_cerrada_ext" data-name="boca cerrada_ext" class="cls-11" d="M383.23,475.4a47.24,47.24,0,0,0,18.1-2.5c20.5-.7,42,17.8,42,17.8s-22.8,11.7-60,11.7h.4c-37.2,0-60-11.7-60-11.7s21.5-18.5,42-17.8a47.24,47.24,0,0,0,18.1,2.5" transform="translate(113.57 -15.6)"/><path id="frente-nariz" class="cls-12" d="M383.83,139.7h135.9l22.6,133.2s-18.2-29.9-59.7-31c-18.3-1.1-50,9-62.3,18.2-12.6,9.4-12.9,9.6-17.1,19.7-2.9,7-.2,37.3-.2,37.3l7.8,57.8a115,115,0,0,0,15,12.7c8.6,6.2,3.8,17,3.8,17s-7.3,13.7-13,11.1c-2.1-1,2.2-4.2,2.2-4.2s5.4-8.7-12.5-.5-22.6,7.2-22.6,7.2-4.8,1-22.6-7.2-12.5.5-12.5.5,4.3,3.2,2.2,4.2c-5.7,2.6-13-11.1-13-11.1s-4.8-10.8,3.8-17a115,115,0,0,0,15-12.7l7.8-57.8s2.7-30.3-.2-37.3c-4.1-10.1-4.5-10.3-17.1-19.7-12.4-9.2-44-19.3-62.3-18.2-41.5,1.1-59.7,31-59.7,31l22.6-133.2h136.1" transform="translate(113.57 -15.6)"/><path class="cls-7" d="M225.23,272.1c.8.3,7.5-13.4,26.4-21.9,18-8.1,37.6-7.1,42.5-6.8,35.3,2.2,51.4,21.6,61,16.8,7.5-3.7,6.4-20-4.3-29.5-18.2-16.1-63.1-12.2-90.8,2.3C232.13,247.6,224.23,271.7,225.23,272.1Z" transform="translate(113.57 -15.6)"/><path class="cls-7" d="M540.61,272.1c-.8.3-7.5-13.4-26.4-21.9-18-8.1-37.6-7.1-42.5-6.8-35.3,2.2-51.4,21.6-61,16.8-7.5-3.7-6.4-20,4.3-29.5,18.2-16.1,63.1-12.2,90.8,2.3C533.71,247.6,541.61,271.7,540.61,272.1Z" transform="translate(113.57 -15.6)"/><g id="pelo"><path id="pelo-der" class="cls-7" d="M257.23,141.7c106.6,9.6,191.7,18.1,231.3,53.8,23.2,20.9,36.9,36.3,59,149.1s0,182.6,0,182.6,37.4-147.3,34.6-217c-1.4-34.2.3-58-42-134.5C500.73,104.5,418.83,74.3,361,79.4S257.23,141.7,257.23,141.7Z" transform="translate(113.57 -15.6)"/><path id="pelo-izq" class="cls-7" d="M257.23,141.7S232,175.2,212.73,205c-23.2,35.7-24.9,70.3-24.9,70.9-13.6,126.3,28.3,240.9,28.3,240.9s-33.4-86.2-6.2-195.6S282.53,144,282.53,144Z" transform="translate(113.57 -15.6)"/></g><path id="goffo-frente" class="cls-13" d="M169,304.9c18-107.6,100.2-191.7,215.1-191.7S595.53,232.4,597.53,303h0c-2.7-126.3-37.4-267.5-213.7-264.1-155.3,3-214.9,108.1-215,266Z" transform="translate(113.57 -15.6)"/></g><g id="boca_abierta" data-name="boca abierta"><path id="boca_abierta_ext" data-name="boca abierta ext" class="cls-11" d="M443.53,490.7s-22.9,20-60.1,20a99.19,99.19,0,0,1-43.7-10,75.66,75.66,0,0,1-15.8-10s21.5-18.5,42-17.8a48.27,48.27,0,0,0,17.8,2.5,48.27,48.27,0,0,0,17.8-2.5C422,472.2,443.53,490.7,443.53,490.7Z" transform="translate(113.57 -15.6)"/><path id="boca_abierta_int" data-name="boca abierta int" class="cls-14" d="M442.73,490.7c-33.4,7.7-57.1,7.6-59.3,7.6h-.2c-2.2,0-25.9.1-59.3-7.6,0,0,3.7-2.6,19.7-8,15.4-5.2,38-1.8,39.7-1.5h0c1.7-.3,24.2-3.7,39.7,1.5C439,488.1,442.73,490.7,442.73,490.7Z" transform="translate(113.57 -15.6)"/></g><path id="labio_superior" data-name="labio superior" class="cls-15" d="M383.43,475.4a47.24,47.24,0,0,0,18.1-2.5c20.5-.7,42,17.8,42,17.8v.1c-5.8-4.8-44.4-7.6-44.4-7.6s0,3.2-15.6,3h.4c-15.6.2-15.6-3-15.6-3s-38.6,2.8-44.4,7.6v-.1s21.5-18.5,42-17.8a47.24,47.24,0,0,0,18.1,2.5" transform="translate(113.57 -15.6)"/><g id="ojos_cerrados" data-name="ojos cerrados"><g id="parpado_izq" data-name="parpado izq"><path id="parpado_fondo_izq" data-name="parpado fondo izq" class="cls-4" d="M429.43,303a21.05,21.05,0,0,0,.2,2.5c0,6.4,15.1,11.6,33.3,11.6,5.2,0,31-1.7,33-11.6a6.5,6.5,0,0,0,0-2.5c-1.5-10-16.3-23.2-33.3-23.2C444.23,279.8,429.43,290.1,429.43,303Z" transform="translate(113.57 -15.6)"/><path id="parpado_linea_izq" data-name="parpado linea izq" class="cls-16" d="M495.63,304.8l-2.7.8c-32.9,8.3-63.5-2-63.5-2" transform="translate(113.57 -15.6)"/></g><g id="parpado_der" data-name="parpado der"><path id="parpado_fondo_der" data-name="parpado fondo der" class="cls-4" d="M337.34,303a21.05,21.05,0,0,1-.2,2.5c0,6.4-15.1,11.6-33.3,11.6-5.2,0-31-1.7-33-11.6a6.5,6.5,0,0,1,0-2.5c1.5-10,16.3-23.2,33.3-23.2C322.54,279.8,337.34,290.1,337.34,303Z" transform="translate(113.57 -15.6)"/><path id="parpado_linea_der" data-name="parpado linea der" class="cls-16" d="M270.23,304.8l2.7.8c32.9,8.3,63.5-2,63.5-2" transform="translate(113.57 -15.6)"/></g></g><g id="anteojo"><g id="lentes"><path id="lente_izq" data-name="lente izq" class="cls-17" d="M362,292.3c-1.3-19.1-43.5-31-52.7-31.5-5.5-.3-51-2.8-69,4-11.8,4.5-17.6,8-20.5,11.4a16.76,16.76,0,0,0-2.9,5l-.8,2.8c-.1.7-.7,3.3-.8,4-.1,1.2-.9,9-.9,20.4,0,7.1,2.1,28.8,6.3,38.1,5.1,11.5,9,18.3,16.8,23.9,7.6,5.5,11.6,7.4,37.7,8.6s39.9-.6,48.8-4c7.3-2.8,16.6-11.1,18.4-13.7,0,0,7-7.1,12.5-21.9C358.5,329,363,306.8,362,292.3Z" transform="translate(113.57 -15.6)"/><path id="lente_der" data-name="lente der" class="cls-18" d="M406.5,292.3c1.3-19.1,43.5-31,52.7-31.5,5.5-.3,51-2.8,69,4,11.8,4.5,17.6,8,20.5,11.4a16.76,16.76,0,0,1,2.9,5l.8,2.8c.1.7.7,3.3.8,4,.1,1.2.9,9,.9,20.4,0,7.1-2.1,28.8-6.3,38.1-5.1,11.5-9,18.3-16.8,23.9-7.6,5.5-11.6,7.4-37.7,8.6s-39.9-.6-48.8-4c-7.3-2.8-16.6-11.1-18.4-13.7,0,0-7-7.1-12.5-21.9C409.9,329,405.5,306.8,406.5,292.3Z" transform="translate(113.57 -15.6)"/></g><path id="anteojo_montura" data-name="anteojo montura" class="cls-19" d="M405.6,296.4H362.7a3.12,3.12,0,0,1-3.1-3.1h0a3.12,3.12,0,0,1,3.1-3.1h42.9a3.12,3.12,0,0,1,3.1,3.1h0A3,3,0,0,1,405.6,296.4Z" transform="translate(113.57 -15.6)"/></g></svg>