<?xml version="1.0" standalone="no"?>
<!DOCTYPE svg PUBLIC "-//W3C//DTD SVG 20010904//EN"
 "http://www.w3.org/TR/2001/REC-SVG-20010904/DTD/svg10.dtd">
<svg version="1.0" xmlns="http://www.w3.org/2000/svg"
 width="1280.000000pt" height="640.000000pt" viewBox="0 0 1280.000000 640.000000"
 preserveAspectRatio="xMidYMid meet">
<metadata>
Created by potrace 1.15, written by Peter Selinger 2001-2017
</metadata>
<g transform="translate(0.000000,640.000000) scale(0.100000,-0.100000)"
fill="#000000" stroke="none">
<path d="M4507 6394 c-14 -23 -18 -101 -21 -409 -2 -188 -8 -330 -14 -345 -5
-14 -22 -35 -36 -47 l-26 -23 0 -258 c0 -279 -9 -351 -49 -378 -20 -14 -21
-24 -21 -155 0 -86 -4 -139 -10 -139 -5 0 -10 5 -10 10 0 6 -7 10 -15 10 -12
0 -15 16 -15 81 l0 81 -60 26 c-41 18 -60 32 -60 44 0 19 -16 25 -22 8 -2 -6
-25 -3 -58 9 -42 14 -75 18 -138 16 -92 -4 -132 -21 -132 -58 -1 -12 0 -603 0
-1313 0 -804 -3 -1300 -9 -1316 -5 -14 -18 -28 -28 -32 -10 -4 -103 -12 -208
-17 -149 -8 -192 -13 -202 -25 -8 -11 -10 -89 -6 -290 5 -246 4 -274 -10 -274
-9 0 -18 4 -21 9 -3 5 -6 75 -7 155 0 146 0 146 -23 146 -20 0 -23 -5 -23 -32
3 -126 -4 -268 -13 -263 -6 4 -17 1 -25 -5 -9 -8 -28 -10 -50 -6 -19 4 -43 2
-54 -3 -14 -8 -25 -6 -43 8 -13 11 -37 21 -53 23 l-30 3 -6 370 c-3 204 -7
557 -8 787 l-1 416 -72 12 c-40 6 -90 13 -110 16 -29 4 -39 11 -47 35 -9 25
-15 29 -46 29 -28 0 -38 5 -42 20 -6 23 -33 27 -33 5 0 -16 3 -16 -255 -20
-77 -1 -146 3 -152 8 -9 6 -18 6 -26 -1 -7 -6 -30 -13 -52 -15 -27 -3 -41 -10
-46 -24 -16 -43 -45 -40 -73 7 -23 40 -38 38 -31 -2 l6 -33 -63 -15 -63 -15 0
-530 c1 -291 -1 -511 -3 -487 -2 23 -7 40 -12 37 -5 -3 -14 11 -19 32 -16 59
-63 126 -104 148 -20 11 -37 27 -37 36 0 9 -7 22 -15 29 -13 10 -15 31 -12
106 3 55 9 100 17 109 10 12 8 20 -14 46 -21 24 -26 41 -26 82 0 70 -14 93
-85 142 -38 26 -60 48 -61 60 0 11 -3 27 -6 35 -16 38 -14 80 4 97 24 21 23
55 -2 78 -29 26 -25 52 15 96 19 22 35 45 35 53 0 7 10 17 23 20 l22 7 -22 11
c-13 6 -23 17 -23 24 0 8 -16 34 -35 60 -28 36 -35 55 -35 90 0 24 -4 44 -10
44 -5 0 -10 -21 -10 -46 0 -39 -6 -53 -35 -85 -19 -22 -35 -46 -35 -54 0 -8
-10 -20 -22 -26 l-22 -12 22 -8 c12 -5 22 -15 22 -23 0 -8 16 -33 35 -56 41
-49 42 -61 13 -100 l-22 -30 22 -29 c16 -23 20 -37 15 -67 -3 -22 -10 -44 -15
-51 -6 -7 -4 -13 4 -16 21 -7 -27 -52 -72 -67 -58 -19 -72 -40 -79 -120 -6
-63 -10 -74 -36 -94 -27 -22 -28 -24 -12 -40 14 -14 17 -36 17 -110 0 -105
-15 -148 -59 -170 -68 -36 -120 -119 -121 -193 0 -52 -14 -90 -40 -112 -21
-16 -21 -16 9 -48 l29 -32 0 -244 0 -244 -68 5 c-38 2 -91 -1 -120 -8 -72 -17
-127 0 -138 44 -7 28 -13 31 -50 34 -30 2 -43 8 -47 23 -4 13 -15 19 -34 19
-16 0 -44 6 -62 14 -46 19 -231 26 -224 8 2 -7 -2 -15 -10 -18 -8 -4 -15 -15
-15 -25 0 -19 -8 -23 -47 -19 -17 1 -23 -4 -23 -19 0 -11 -11 -31 -24 -45 -21
-24 -30 -26 -124 -28 l-102 -2 -5 -31 c-3 -16 -4 -361 -3 -765 l3 -735 6325
-3 c3479 -2 6357 0 6395 3 l70 6 -6 847 c-3 466 -10 869 -15 897 -9 48 -10 50
-47 56 -52 8 -110 -12 -118 -43 -7 -24 -14 -15 -21 27 -3 14 -10 19 -25 17
-20 -3 -22 2 -26 55 -3 48 -4 43 -5 -27 -3 -122 -5 -127 -55 -128 -23 0 -53
-1 -67 -3 -25 -4 -25 -2 -30 76 l-6 80 -4 -80 -5 -80 -57 -3 -58 -3 -2 188 -3
188 -82 3 -83 3 0 54 c0 32 -5 57 -12 61 -21 13 -183 17 -205 6 -19 -11 -20
-7 -27 65 -3 42 -6 254 -6 473 l0 396 -42 19 c-27 12 -63 18 -106 17 -54 -1
-65 2 -69 17 -3 14 -15 18 -51 18 -26 1 -72 2 -102 3 -38 2 -67 -3 -90 -15
-47 -24 -93 -63 -102 -86 -6 -17 -19 -19 -100 -19 -138 -1 -333 -17 -357 -29
-20 -11 -21 -21 -23 -219 l-3 -207 -115 -11 c-63 -7 -118 -9 -121 -5 -3 3 -16
32 -29 64 -12 31 -26 59 -30 62 -4 2 -21 -39 -39 -92 -19 -59 -43 -109 -61
-130 -26 -29 -30 -41 -30 -94 0 -33 -5 -70 -12 -82 -8 -15 -10 -109 -9 -314
l2 -293 -45 0 c-26 0 -46 5 -48 12 -3 7 -29 15 -59 18 l-54 5 0 685 0 685 -75
3 c-48 2 -80 8 -91 18 -15 13 -17 13 -22 -6 -7 -28 -32 -35 -78 -21 -28 9 -39
17 -39 32 0 12 -11 24 -27 32 -16 6 -31 16 -35 22 -5 6 -8 3 -8 -7 0 -15 -9
-18 -47 -18 -73 0 -91 -8 -98 -42 -6 -26 -10 -29 -35 -25 -15 3 -31 2 -37 -4
-5 -5 -35 -10 -66 -10 -52 -2 -58 -4 -64 -27 -3 -13 -3 -62 1 -107 7 -100 0
-111 -70 -101 -41 5 -45 4 -34 -9 7 -9 10 -18 7 -21 -3 -4 -45 -11 -92 -18
-76 -10 -87 -14 -98 -36 -8 -15 -24 -27 -42 -30 -25 -4 -31 -11 -37 -45 -4
-22 -7 -93 -7 -158 l-1 -119 -27 6 c-16 3 -92 10 -171 17 l-143 12 2 756 2
756 -108 6 c-67 4 -111 11 -113 18 -2 6 -10 11 -19 11 -12 0 -14 18 -12 113
l2 112 -36 -3 c-32 -2 -35 0 -30 19 5 19 2 20 -41 18 -26 -2 -50 1 -54 6 -4 6
-15 11 -24 11 -13 1 -15 -3 -8 -22 5 -13 8 -24 7 -25 -20 -7 -50 -8 -84 -3
-42 6 -43 7 -43 44 0 39 -11 50 -51 50 -10 0 -28 9 -39 20 -11 11 -23 19 -27
18 -4 -2 -7 137 -7 307 -1 291 -4 335 -26 335 -20 0 -24 -60 -21 -333 4 -323
3 -324 -66 -345 -22 -7 -48 -24 -61 -41 -15 -20 -40 -36 -77 -47 l-55 -18 -2
-1285 -3 -1286 -37 -9 c-43 -11 -52 -26 -12 -18 30 6 44 -10 44 -51 0 -20 -7
-30 -26 -37 -33 -13 -32 -13 -36 13 -2 15 -11 23 -30 25 -22 3 -27 -1 -30 -24
-2 -15 -9 -30 -17 -32 -12 -4 -13 89 -7 604 4 352 3 614 -2 622 -9 14 -121 44
-134 36 -17 -11 -28 42 -28 135 0 69 -4 102 -12 108 -7 4 -60 7 -117 6 -141
-3 -141 -3 -141 -150 l0 -113 -24 0 c-14 0 -28 -6 -33 -12 -4 -7 -10 -112 -13
-233 l-5 -220 -118 4 c-83 2 -122 0 -132 -9 -12 -10 -15 -38 -15 -131 0 -75
-4 -119 -10 -119 -7 0 -7 -7 0 -21 15 -27 -11 -48 -61 -49 -60 0 -73 -18 -77
-104 -3 -43 -9 -80 -17 -86 -21 -17 -103 -24 -120 -10 -13 11 -15 83 -15 562
0 521 -1 550 -17 542 -10 -5 -76 -9 -148 -9 -71 0 -135 -4 -141 -8 -7 -4 -46
-12 -89 -18 -59 -8 -80 -7 -91 2 -21 17 -34 -4 -34 -53 0 -41 -10 -45 -78 -32
-28 6 -30 10 -34 58 -5 54 -36 116 -48 96 -9 -15 -127 -23 -135 -9 -12 19 -25
-3 -25 -42 l0 -40 -77 3 -78 3 -5 44 c-5 42 -30 72 -30 36 0 -9 -3 -15 -7 -13
-59 30 -85 38 -103 28 -26 -14 -27 -13 -34 13 -6 20 -7 20 -17 5 -5 -10 -16
-18 -23 -18 -11 0 -15 58 -19 298 -3 177 -9 311 -16 332 l-11 36 -62 -4 c-35
-2 -73 0 -85 5 l-23 8 -4 540 c-2 297 -5 541 -5 542 -8 22 -301 61 -309 41 -2
-4 -8 -8 -13 -8 -5 0 -9 38 -9 84 0 78 -2 85 -25 100 l-25 16 0 305 c0 293 -1
306 -20 322 -11 10 -20 23 -20 31 0 7 -14 18 -30 24 -18 6 -32 19 -34 31 -10
46 -18 242 -21 457 -2 208 -12 300 -28 274z"/>
</g>
</svg>
